<?xml version="1.0" encoding="utf-8"?>
<!-- Generator: Adobe Illustrator 16.0.0, SVG Export Plug-In . SVG Version: 6.00 Build 0)  -->
<!DOCTYPE svg PUBLIC "-//W3C//DTD SVG 1.1//EN" "http://www.w3.org/Graphics/SVG/1.1/DTD/svg11.dtd">
<svg version="1.1" xmlns="http://www.w3.org/2000/svg" xmlns:xlink="http://www.w3.org/1999/xlink" x="0px" y="0px" width="800px"
	 height="800px" preserveAspectRatio="none" viewBox="0 0 800 800" enable-background="new 0 0 800 800" xml:space="preserve">
<g id="Background_2">
	
		<radialGradient id="SVGID_1_" cx="400" cy="399.9985" r="399.9998" gradientTransform="matrix(-0.0075 1 -1 -0.0075 803 3.0234)" gradientUnits="userSpaceOnUse">
		<stop  offset="0.2727" style="stop-color:#FFFFFF"/>
		<stop  offset="0.5554" style="stop-color:#FAFAFA"/>
		<stop  offset="0.9083" style="stop-color:#EAEBEC"/>
		<stop  offset="1" style="stop-color:#E5E6E7"/>
	</radialGradient>
	<polygon fill="url(#SVGID_1_)" points="-3.001,796.977 3.024,-3 803.001,3.024 796.977,803.001 	"/>
</g>
<g id="Background">
	<defs>
		<filter id="Adobe_OpacityMaskFilter" filterUnits="userSpaceOnUse" x="27.54" y="482.895" width="744.92" height="72.34">
			<feFlood  style="flood-color:white;flood-opacity:1" result="back"/>
			<feBlend  in="SourceGraphic" in2="back" mode="normal"/>
		</filter>
	</defs>
	<mask maskUnits="userSpaceOnUse" x="27.54" y="482.895" width="744.92" height="72.34" id="SVGID_2_">
		<g filter="url(#Adobe_OpacityMaskFilter)">
			<defs>
				<filter id="Adobe_OpacityMaskFilter_1_" filterUnits="userSpaceOnUse" x="27.54" y="482.895" width="744.92" height="72.34">
					<feFlood  style="flood-color:white;flood-opacity:1" result="back"/>
					<feBlend  in="SourceGraphic" in2="back" mode="normal"/>
				</filter>
			</defs>
			<mask maskUnits="userSpaceOnUse" x="27.54" y="482.895" width="744.92" height="72.34" id="SVGID_2_">
				<g filter="url(#Adobe_OpacityMaskFilter_1_)">
				</g>
			</mask>
			
				<radialGradient id="SVGID_3_" cx="400.001" cy="1918.8359" r="372.48" gradientTransform="matrix(1 0 0 0.0971 -4.882813e-004 332.7458)" gradientUnits="userSpaceOnUse">
				<stop  offset="0.0364" style="stop-color:#ABABAB"/>
				<stop  offset="0.1437" style="stop-color:#939393"/>
				<stop  offset="0.4416" style="stop-color:#545454"/>
				<stop  offset="0.694" style="stop-color:#262626"/>
				<stop  offset="0.8879" style="stop-color:#0A0A0A"/>
				<stop  offset="1" style="stop-color:#000000"/>
			</radialGradient>
			<ellipse mask="url(#SVGID_2_)" fill="url(#SVGID_3_)" cx="400" cy="519.063" rx="372.46" ry="36.172"/>
		</g>
	</mask>
	
		<radialGradient id="SVGID_4_" cx="400.001" cy="1918.8359" r="372.48" gradientTransform="matrix(1 0 0 0.0971 -4.882813e-004 332.7458)" gradientUnits="userSpaceOnUse">
		<stop  offset="0.0364" style="stop-color:#919396"/>
		<stop  offset="0.2197" style="stop-color:#ABADAF"/>
		<stop  offset="0.5709" style="stop-color:#D9D9DA"/>
		<stop  offset="0.8427" style="stop-color:#F5F5F5"/>
		<stop  offset="1" style="stop-color:#FFFFFF"/>
	</radialGradient>
	<ellipse display="none" fill="url(#SVGID_4_)" cx="400" cy="519.063" rx="372.46" ry="36.172"/>
	<g>
		<defs>
			<rect id="SVGID_5_" x="0" y="0.001" transform="matrix(-1 -0.0053 0.0053 -1 797.8738 802.116)" width="800" height="800"/>
		</defs>
		<clipPath id="SVGID_6_">
			<use xlink:href="#SVGID_5_"  overflow="visible"/>
		</clipPath>
		<g clip-path="url(#SVGID_6_)">
			<polygon fill="#1D6DE4" points="812.78,606.095 860.381,634.196 812.484,661.791 			"/>
			<polygon fill="#155FDE" points="860.085,689.891 812.484,661.791 860.381,634.196 			"/>
			<polygon fill="#1459DC" points="812.484,661.791 860.085,689.891 812.189,717.485 			"/>
			<polygon fill="#0C46CF" points="859.79,745.586 812.189,717.485 860.085,689.891 			"/>
			<polygon fill="#0E4BD7" points="812.189,717.485 859.79,745.586 811.895,773.18 			"/>
			<polygon fill="#0839C7" points="859.495,801.281 811.895,773.18 859.79,745.586 			"/>
			<polygon fill="#0633C0" points="811.895,773.18 859.495,801.281 811.599,828.876 			"/>
			<polygon fill="#2780EA" points="812.78,606.095 765.18,577.994 813.075,550.4 			"/>
			<polygon fill="#3A95F3" points="765.18,577.994 812.78,606.095 764.884,633.69 			"/>
			<polygon fill="#2C83EE" points="812.484,661.791 764.884,633.69 812.78,606.095 			"/>
			<polygon fill="#2374E8" points="764.884,633.69 812.484,661.791 764.589,689.385 			"/>
			<polygon fill="#1862E0" points="812.189,717.485 764.589,689.385 812.484,661.791 			"/>
			<polygon fill="#1253D6" points="764.589,689.385 812.189,717.485 764.293,745.08 			"/>
			<polygon fill="#0D49D1" points="811.895,773.18 764.293,745.08 812.189,717.485 			"/>
			<polygon fill="#0635BE" points="764.293,745.08 811.895,773.18 763.998,800.775 			"/>
			<polygon fill="#0530BB" points="811.599,828.876 763.998,800.775 811.895,773.18 			"/>
			<polygon fill="#3C99F6" points="717.873,494.2 765.475,522.3 717.577,549.895 			"/>
			<polygon fill="#439FF6" points="765.18,577.994 717.577,549.895 765.475,522.3 			"/>
			<polygon fill="#5FB6FB" points="717.577,549.895 765.18,577.994 717.282,605.589 			"/>
			<polygon fill="#429CF3" points="764.884,633.69 717.282,605.589 765.18,577.994 			"/>
			<polygon fill="#388DEE" points="717.282,605.589 764.884,633.69 716.987,661.284 			"/>
			<polygon fill="#2676E6" points="764.589,689.385 716.987,661.284 764.884,633.69 			"/>
			<polygon fill="#1F6AE0" points="716.987,661.284 764.589,689.385 716.691,716.979 			"/>
			<polygon fill="#1252D2" points="764.293,745.08 716.691,716.979 764.589,689.385 			"/>
			<polygon fill="#1252D3" points="716.691,716.979 764.293,745.08 716.396,772.674 			"/>
			<polygon fill="#0A40C8" points="763.998,800.775 716.396,772.674 764.293,745.08 			"/>
			<polygon fill="#0D47CD" points="716.396,772.674 763.998,800.775 716.102,828.369 			"/>
			<polygon fill="#4BA8F9" points="670.273,466.099 717.873,494.2 669.979,521.794 			"/>
			<polygon fill="#55AFFB" points="717.577,549.895 669.979,521.794 717.873,494.2 			"/>
			<polygon fill="#77C6FD" points="669.979,521.794 717.577,549.895 669.683,577.488 			"/>
			<polygon fill="#6EC0FC" points="717.282,605.589 669.683,577.488 717.577,549.895 			"/>
			<polygon fill="#66B7F9" points="669.683,577.488 717.282,605.589 669.388,633.184 			"/>
			<polygon fill="#479BF1" points="716.987,661.284 669.388,633.184 717.282,605.589 			"/>
			<polygon fill="#3B8DEB" points="669.388,633.184 716.987,661.284 669.093,688.879 			"/>
			<polygon fill="#2B7BE6" points="716.691,716.979 669.093,688.879 716.987,661.284 			"/>
			<polygon fill="#368BF0" points="669.093,688.879 716.691,716.979 668.797,744.573 			"/>
			<polygon fill="#2676E8" points="716.396,772.674 668.797,744.573 716.691,716.979 			"/>
			<polygon fill="#195EDB" points="668.797,744.573 716.396,772.674 668.502,800.269 			"/>
			<polygon fill="#1354D6" points="716.102,828.369 668.502,800.269 716.396,772.674 			"/>
			<polygon fill="#6AC0FC" points="669.979,521.794 622.377,493.693 670.273,466.099 			"/>
			<polygon fill="#70C0FC" points="622.377,493.693 669.979,521.794 622.081,549.388 			"/>
			<polygon fill="#7BC7FD" points="669.683,577.488 622.081,549.388 669.979,521.794 			"/>
			<polygon fill="#81C6FB" points="622.081,549.388 669.683,577.488 621.786,605.082 			"/>
			<polygon fill="#77BFF9" points="669.388,633.184 621.786,605.082 669.683,577.488 			"/>
			<polygon fill="#73BBF8" points="621.786,605.082 669.388,633.184 621.49,660.778 			"/>
			<polygon fill="#55A4F3" points="669.093,688.879 621.49,660.778 669.388,633.184 			"/>
			<polygon fill="#3888E8" points="621.49,660.778 669.093,688.879 621.195,716.473 			"/>
			<polygon fill="#3484EA" points="668.797,744.573 621.195,716.473 669.093,688.879 			"/>
			<polygon fill="#2068DE" points="621.195,716.473 668.797,744.573 620.9,772.168 			"/>
			<polygon fill="#1454D3" points="668.502,800.269 620.9,772.168 668.797,744.573 			"/>
			<polygon fill="#1150D2" points="620.9,772.168 668.502,800.269 620.604,827.863 			"/>
			<polygon fill="#BEE8FD" points="575.365,354.202 622.967,382.303 575.07,409.897 			"/>
			<polygon fill="#91D2FB" points="622.672,437.998 575.07,409.897 622.967,382.303 			"/>
			<polygon fill="#58AFF7" points="622.377,493.693 574.774,465.593 622.672,437.998 			"/>
			<polygon fill="#64B7FA" points="574.774,465.593 622.377,493.693 574.479,521.287 			"/>
			<polygon fill="#6BBBFA" points="622.081,549.388 574.479,521.287 622.377,493.693 			"/>
			<polygon fill="#91D3FD" points="574.479,521.287 622.081,549.388 574.185,576.982 			"/>
			<polygon fill="#93D2FD" points="621.786,605.082 574.185,576.982 622.081,549.388 			"/>
			<polygon fill="#7ABEF7" points="574.185,576.982 621.786,605.082 573.889,632.678 			"/>
			<polygon fill="#81C0F8" points="621.49,660.778 573.889,632.678 621.786,605.082 			"/>
			<polygon fill="#6AB0F5" points="573.889,632.678 621.49,660.778 573.594,688.372 			"/>
			<polygon fill="#3F8EEB" points="621.195,716.473 573.594,688.372 621.49,660.778 			"/>
			<polygon fill="#3986E9" points="573.594,688.372 621.195,716.473 573.299,744.067 			"/>
			<polygon fill="#2269DD" points="620.9,772.168 573.299,744.067 621.195,716.473 			"/>
			<polygon fill="#124ECD" points="573.299,744.067 620.9,772.168 573.003,799.763 			"/>
			<polygon fill="#0B41C3" points="620.604,827.863 573.003,799.763 620.9,772.168 			"/>
			<polygon fill="#84CEFD" points="527.175,437.492 574.774,465.593 526.88,493.188 			"/>
			<polygon fill="#78C5FC" points="574.479,521.287 526.88,493.188 574.774,465.593 			"/>
			<polygon fill="#73BEFB" points="526.88,493.188 574.479,521.287 526.585,548.882 			"/>
			<polygon fill="#85CAFD" points="574.185,576.982 526.585,548.882 574.479,521.287 			"/>
			<polygon fill="#70BAF8" points="526.585,548.882 574.185,576.982 526.289,604.576 			"/>
			<polygon fill="#5DAAF3" points="573.889,632.678 526.289,604.576 574.185,576.982 			"/>
			<polygon fill="#56A5F2" points="526.289,604.576 573.889,632.678 525.994,660.271 			"/>
			<polygon fill="#5CA6F2" points="573.594,688.372 525.994,660.271 573.889,632.678 			"/>
			<polygon fill="#4597F0" points="525.994,660.271 573.594,688.372 525.699,715.967 			"/>
			<polygon fill="#4495F1" points="573.299,744.067 525.699,715.967 573.594,688.372 			"/>
			<polygon fill="#3383EC" points="525.699,715.967 573.299,744.067 525.403,771.661 			"/>
			<polygon fill="#1C62DE" points="573.003,799.763 525.403,771.661 573.299,744.067 			"/>
			<polygon fill="#1556D6" points="525.403,771.661 573.003,799.763 525.108,827.356 			"/>
			<polygon fill="#D6EFFD" points="479.869,353.696 527.471,381.797 479.573,409.392 			"/>
			<polygon fill="#C9EAFD" points="527.175,437.492 479.573,409.392 527.471,381.797 			"/>
			<polygon fill="#C0EAFE" points="479.573,409.392 527.175,437.492 479.278,465.086 			"/>
			<polygon fill="#99DAFE" points="526.88,493.188 479.278,465.086 527.175,437.492 			"/>
			<polygon fill="#97D7FE" points="479.278,465.086 526.88,493.188 478.982,520.781 			"/>
			<polygon fill="#82C7FC" points="526.585,548.882 478.982,520.781 526.88,493.188 			"/>
			<polygon fill="#71B9F9" points="478.982,520.781 526.585,548.882 478.688,576.476 			"/>
			<polygon fill="#6FBAF9" points="526.289,604.576 478.688,576.476 526.585,548.882 			"/>
			<polygon fill="#63B1F7" points="478.688,576.476 526.289,604.576 478.393,632.171 			"/>
			<polygon fill="#54A4F3" points="525.994,660.271 478.393,632.171 526.289,604.576 			"/>
			<polygon fill="#3D8DEC" points="478.393,632.171 525.994,660.271 478.097,687.866 			"/>
			<polygon fill="#3D8FEF" points="525.699,715.967 478.097,687.866 525.994,660.271 			"/>
			<polygon fill="#2976E5" points="478.097,687.866 525.699,715.967 477.802,743.561 			"/>
			<polygon fill="#2B78E8" points="525.403,771.661 477.802,743.561 525.699,715.967 			"/>
			<polygon fill="#185BDA" points="477.802,743.561 525.403,771.661 477.507,799.256 			"/>
			<polygon fill="#1453D4" points="525.108,827.356 477.507,799.256 525.403,771.661 			"/>
			<polygon fill="#D0EBFC" points="479.573,409.392 431.975,381.291 479.869,353.696 			"/>
			<polygon fill="#C6E9FD" points="431.975,381.291 479.573,409.392 431.679,436.986 			"/>
			<polygon fill="#C8F0FE" points="479.278,465.086 431.679,436.986 479.573,409.392 			"/>
			<polygon fill="#B8E9FE" points="431.679,436.986 479.278,465.086 431.384,492.681 			"/>
			<polygon fill="#A5DEFE" points="478.982,520.781 431.384,492.681 479.278,465.086 			"/>
			<polygon fill="#AFE3FD" points="431.384,492.681 478.982,520.781 431.088,548.375 			"/>
			<polygon fill="#95D1FC" points="478.688,576.476 431.088,548.375 478.982,520.781 			"/>
			<polygon fill="#79BFF9" points="431.088,548.375 478.688,576.476 430.793,604.07 			"/>
			<polygon fill="#59A8F4" points="478.393,632.171 430.793,604.07 478.688,576.476 			"/>
			<polygon fill="#3C8CEA" points="430.793,604.07 478.393,632.171 430.498,659.766 			"/>
			<polygon fill="#2D79E3" points="478.097,687.866 430.498,659.766 478.393,632.171 			"/>
			<polygon fill="#1F66DC" points="430.498,659.766 478.097,687.866 430.202,715.461 			"/>
			<polygon fill="#1A5DD8" points="477.802,743.561 430.202,715.461 478.097,687.866 			"/>
			<polygon fill="#1654D5" points="430.202,715.461 477.802,743.561 429.907,771.155 			"/>
			<polygon fill="#1453D5" points="477.507,799.256 429.907,771.155 477.802,743.561 			"/>
			<polygon fill="#104CD1" points="429.907,771.155 477.507,799.256 429.612,826.851 			"/>
			<polygon fill="#E0F3FE" points="431.975,381.291 384.372,353.189 432.27,325.596 			"/>
			<polygon fill="#D9F2FE" points="384.372,353.189 431.975,381.291 384.077,408.885 			"/>
			<polygon fill="#C0E7FE" points="431.679,436.986 384.077,408.885 431.975,381.291 			"/>
			<polygon fill="#AFE2FE" points="384.077,408.885 431.679,436.986 383.781,464.58 			"/>
			<polygon fill="#B7E8FE" points="431.384,492.681 383.781,464.58 431.679,436.986 			"/>
			<polygon fill="#ACE1FE" points="383.781,464.58 431.384,492.681 383.486,520.275 			"/>
			<polygon fill="#91CDFC" points="431.088,548.375 383.486,520.275 431.384,492.681 			"/>
			<polygon fill="#6DB4F7" points="383.486,520.275 431.088,548.375 383.191,575.97 			"/>
			<polygon fill="#6AB4F7" points="430.793,604.07 383.191,575.97 431.088,548.375 			"/>
			<polygon fill="#4897EE" points="383.191,575.97 430.793,604.07 382.896,631.665 			"/>
			<polygon fill="#3787E9" points="430.498,659.766 382.896,631.665 430.793,604.07 			"/>
			<polygon fill="#2975E4" points="382.896,631.665 430.498,659.766 382.601,687.359 			"/>
			<polygon fill="#2068DF" points="430.202,715.461 382.601,687.359 430.498,659.766 			"/>
			<polygon fill="#195DDB" points="382.601,687.359 430.202,715.461 382.305,743.055 			"/>
			<polygon fill="#1858D9" points="429.907,771.155 382.305,743.055 430.202,715.461 			"/>
			<polygon fill="#0D42C9" points="382.305,743.055 429.907,771.155 382.01,798.75 			"/>
			<polygon fill="#0A3DC4" points="429.612,826.851 382.01,798.75 429.907,771.155 			"/>
			<polygon fill="#E0F3FE" points="336.771,325.09 384.372,353.189 336.476,380.785 			"/>
			<polygon fill="#CDEEFE" points="336.476,380.785 384.077,408.885 336.181,436.479 			"/>
			<polygon fill="#AEDFFE" points="383.781,464.58 336.181,436.479 384.077,408.885 			"/>
			<polygon fill="#A1D9FE" points="336.181,436.479 383.781,464.58 335.885,492.175 			"/>
			<polygon fill="#9FD8FD" points="383.486,520.275 335.885,492.175 383.781,464.58 			"/>
			<polygon fill="#83C4FC" points="335.885,492.175 383.486,520.275 335.59,547.869 			"/>
			<polygon fill="#70B6F7" points="383.191,575.97 335.59,547.869 383.486,520.275 			"/>
			<polygon fill="#60AAF4" points="335.59,547.869 383.191,575.97 335.295,603.563 			"/>
			<polygon fill="#4290EB" points="382.896,631.665 335.295,603.563 383.191,575.97 			"/>
			<polygon fill="#3483E9" points="335.295,603.563 382.896,631.665 335,659.259 			"/>
			<polygon fill="#2671E2" points="382.601,687.359 335,659.259 382.896,631.665 			"/>
			<polygon fill="#1D62DC" points="335,659.259 382.601,687.359 334.705,714.954 			"/>
			<polygon fill="#1A5EDC" points="382.305,743.055 334.705,714.954 382.601,687.359 			"/>
			<polygon fill="#124ED4" points="334.705,714.954 382.305,743.055 334.409,770.648 			"/>
			<polygon fill="#104BD2" points="382.01,798.75 334.409,770.648 382.305,743.055 			"/>
			<polygon fill="#104AD2" points="334.409,770.648 382.01,798.75 334.114,826.344 			"/>
			<polygon fill="#DEF3FF" points="288.876,352.683 336.476,380.785 288.581,408.379 			"/>
			<polygon fill="#BAE5FE" points="288.581,408.379 336.181,436.479 288.286,464.073 			"/>
			<polygon fill="#92CDFD" points="335.885,492.175 288.286,464.073 336.181,436.479 			"/>
			<polygon fill="#76B7F8" points="288.286,464.073 335.885,492.175 287.99,519.769 			"/>
			<polygon fill="#7CBDFA" points="335.59,547.869 287.99,519.769 335.885,492.175 			"/>
			<polygon fill="#7CBCF8" points="287.99,519.769 335.59,547.869 287.695,575.463 			"/>
			<polygon fill="#5BA4F2" points="335.295,603.563 287.695,575.463 335.59,547.869 			"/>
			<polygon fill="#418DE9" points="287.695,575.463 335.295,603.563 287.4,631.159 			"/>
			<polygon fill="#2F7AE4" points="335,659.259 287.4,631.159 335.295,603.563 			"/>
			<polygon fill="#2268DD" points="287.4,631.159 335,659.259 287.104,686.854 			"/>
			<polygon fill="#1F63DD" points="334.705,714.954 287.104,686.854 335,659.259 			"/>
			<polygon fill="#1653D4" points="287.104,686.854 334.705,714.954 286.81,742.548 			"/>
			<polygon fill="#114AD1" points="334.409,770.648 286.81,742.548 334.705,714.954 			"/>
			<polygon fill="#0C3EC8" points="286.81,742.548 334.409,770.648 286.514,798.244 			"/>
			<polygon fill="#0C3FC9" points="334.114,826.344 286.514,798.244 334.409,770.648 			"/>
			<polygon fill="#DDF3FF" points="288.581,408.379 240.979,380.278 288.876,352.683 			"/>
			<polygon fill="#BBE5FE" points="288.286,464.073 240.684,435.974 288.581,408.379 			"/>
			<polygon fill="#9AD1FD" points="240.684,435.974 288.286,464.073 240.389,491.668 			"/>
			<polygon fill="#83BAF6" points="240.389,491.668 287.99,519.769 240.094,547.363 			"/>
			<polygon fill="#70AFF4" points="287.695,575.463 240.094,547.363 287.99,519.769 			"/>
			<polygon fill="#539CEF" points="240.094,547.363 287.695,575.463 239.798,603.058 			"/>
			<polygon fill="#438FEB" points="287.4,631.159 239.798,603.058 287.695,575.463 			"/>
			<polygon fill="#3984E9" points="239.798,603.058 287.4,631.159 239.503,658.753 			"/>
			<polygon fill="#2064DB" points="287.104,686.854 239.503,658.753 287.4,631.159 			"/>
			<polygon fill="#1552D0" points="239.503,658.753 287.104,686.854 239.208,714.448 			"/>
			<polygon fill="#144DCF" points="286.81,742.548 239.208,714.448 287.104,686.854 			"/>
			<polygon fill="#0B3CC2" points="239.208,714.448 286.81,742.548 238.913,770.143 			"/>
			<polygon fill="#0937C0" points="286.514,798.244 238.913,770.143 286.81,742.548 			"/>
			<polygon fill="#0832BA" points="238.913,770.143 286.514,798.244 238.617,825.838 			"/>
			<polygon fill="#D4EBFC" points="240.979,380.278 193.379,352.177 241.274,324.584 			"/>
			<polygon fill="#BEE4FE" points="193.084,407.872 240.684,435.974 192.789,463.567 			"/>
			<polygon fill="#9FD4FE" points="240.389,491.668 192.789,463.567 240.684,435.974 			"/>
			<polygon fill="#8BC5FC" points="192.789,463.567 240.389,491.668 192.494,519.263 			"/>
			<polygon fill="#7FB9F7" points="240.094,547.363 192.494,519.263 240.389,491.668 			"/>
			<polygon fill="#64A6F1" points="192.494,519.263 240.094,547.363 192.198,574.957 			"/>
			<polygon fill="#549CEF" points="239.798,603.058 192.198,574.957 240.094,547.363 			"/>
			<polygon fill="#428AE8" points="192.198,574.957 239.798,603.058 191.903,630.652 			"/>
			<polygon fill="#3880E6" points="239.503,658.753 191.903,630.652 239.798,603.058 			"/>
			<polygon fill="#1C5CD4" points="191.903,630.652 239.503,658.753 191.608,686.347 			"/>
			<polygon fill="#1A59D5" points="239.208,714.448 191.608,686.347 239.503,658.753 			"/>
			<polygon fill="#1146C8" points="191.608,686.347 239.208,714.448 191.313,742.042 			"/>
			<polygon fill="#0D3EC3" points="238.913,770.143 191.313,742.042 239.208,714.448 			"/>
			<polygon fill="#0D3ABF" points="191.313,742.042 238.913,770.143 191.018,797.737 			"/>
			<polygon fill="#072DB3" points="238.617,825.838 191.018,797.737 238.913,770.143 			"/>
			<polygon fill="#96CBFC" points="192.494,519.263 144.894,491.162 192.789,463.567 			"/>
			<polygon fill="#5FA0EE" points="192.198,574.957 144.599,546.856 192.494,519.263 			"/>
			<polygon fill="#5195E8" points="144.599,546.856 192.198,574.957 144.304,602.551 			"/>
			<polygon fill="#3B80E2" points="191.903,630.652 144.304,602.551 192.198,574.957 			"/>
			<polygon fill="#3174DD" points="144.304,602.551 191.903,630.652 144.008,658.246 			"/>
			<polygon fill="#1F5ED4" points="191.608,686.347 144.008,658.246 191.903,630.652 			"/>
			<polygon fill="#174EC9" points="144.008,658.246 191.608,686.347 143.713,713.941 			"/>
			<polygon fill="#1042C4" points="191.313,742.042 143.713,713.941 191.608,686.347 			"/>
			<polygon fill="#0D39BB" points="143.713,713.941 191.313,742.042 143.417,769.636 			"/>
			<polygon fill="#0F3DC3" points="191.018,797.737 143.417,769.636 191.313,742.042 			"/>
			<polygon fill="#0A31B3" points="143.417,769.636 191.018,797.737 143.123,825.332 			"/>
			<polygon fill="#A0D0FD" points="144.599,546.856 96.995,518.756 144.894,491.162 			"/>
			<polygon fill="#9CCBFB" points="96.995,518.756 144.599,546.856 96.7,574.45 			"/>
			<polygon fill="#79B2F3" points="144.304,602.551 96.7,574.45 144.599,546.856 			"/>
			<polygon fill="#6BA6EF" points="96.7,574.45 144.304,602.551 96.404,630.146 			"/>
			<polygon fill="#4486E5" points="144.008,658.246 96.404,630.146 144.304,602.551 			"/>
			<polygon fill="#3776DE" points="96.404,630.146 144.008,658.246 96.109,685.841 			"/>
			<polygon fill="#1D56CC" points="143.713,713.941 96.109,685.841 144.008,658.246 			"/>
			<polygon fill="#1444BF" points="96.109,685.841 143.713,713.941 95.814,741.536 			"/>
			<polygon fill="#0B34B2" points="143.417,769.636 95.814,741.536 143.713,713.941 			"/>
			<polygon fill="#092EAB" points="95.814,741.536 143.417,769.636 95.519,797.231 			"/>
			<polygon fill="#0628A5" points="143.123,825.332 95.519,797.231 143.417,769.636 			"/>
			<polygon fill="#A1CDFB" points="96.995,518.756 49.396,490.655 97.291,463.062 			"/>
			<polygon fill="#A7D0FB" points="49.396,490.655 96.995,518.756 49.1,546.351 			"/>
			<polygon fill="#A6CFFB" points="96.7,574.45 49.1,546.351 96.995,518.756 			"/>
			<polygon fill="#A1CBF9" points="49.1,546.351 96.7,574.45 48.805,602.045 			"/>
			<polygon fill="#7BAFF0" points="96.404,630.146 48.805,602.045 96.7,574.45 			"/>
			<polygon fill="#6BA2EC" points="48.805,602.045 96.404,630.146 48.51,657.74 			"/>
			<polygon fill="#4F8AE6" points="96.109,685.841 48.51,657.74 96.404,630.146 			"/>
			<polygon fill="#366DD5" points="48.51,657.74 96.109,685.841 48.214,713.436 			"/>
			<polygon fill="#1D4FC4" points="95.814,741.536 48.214,713.436 96.109,685.841 			"/>
			<polygon fill="#1A49C2" points="48.214,713.436 95.814,741.536 47.919,769.13 			"/>
			<polygon fill="#0C31AC" points="95.519,797.231 47.919,769.13 95.814,741.536 			"/>
			<polygon fill="#0B2EA6" points="47.919,769.13 95.519,797.231 47.624,824.825 			"/>
			<polygon fill="#A8CDF8" points="48.805,602.045 1.205,573.944 49.1,546.351 			"/>
			<polygon fill="#9BC1F4" points="1.205,573.944 48.805,602.045 0.91,629.64 			"/>
			<polygon fill="#6FA0E8" points="48.51,657.74 0.91,629.64 48.805,602.045 			"/>
			<polygon fill="#5788DD" points="0.91,629.64 48.51,657.74 0.614,685.334 			"/>
			<polygon fill="#4074D6" points="48.214,713.436 0.614,685.334 48.51,657.74 			"/>
			<polygon fill="#305FCA" points="0.614,685.334 48.214,713.436 0.319,741.029 			"/>
			<polygon fill="#2352C6" points="47.919,769.13 0.319,741.029 48.214,713.436 			"/>
			<polygon fill="#1841B6" points="0.319,741.029 47.919,769.13 0.024,796.725 			"/>
			<polygon fill="#1137AD" points="47.624,824.825 0.024,796.725 47.919,769.13 			"/>
			<polygon fill="#9FC2F2" points="-46.395,545.844 1.205,573.944 -46.69,601.538 			"/>
			<polygon fill="#9FC3F3" points="0.91,629.64 -46.69,601.538 1.205,573.944 			"/>
			<polygon fill="#628FDE" points="0.614,685.334 -46.985,657.234 0.91,629.64 			"/>
			<polygon fill="#4471CE" points="-46.985,657.234 0.614,685.334 -47.28,712.929 			"/>
			<polygon fill="#2C57C0" points="0.319,741.029 -47.28,712.929 0.614,685.334 			"/>
			<polygon fill="#1D44B0" points="-47.28,712.929 0.319,741.029 -47.576,768.623 			"/>
			<polygon fill="#173DAB" points="0.024,796.725 -47.576,768.623 0.319,741.029 			"/>
			<polygon fill="#163CAB" points="-47.576,768.623 0.024,796.725 -47.871,824.319 			"/>
		</g>
		<g opacity="0.76" clip-path="url(#SVGID_6_)">
			<polygon fill="#1D6DE4" points="812.78,606.095 860.381,634.196 812.484,661.791 			"/>
			<polygon fill="#155FDE" points="860.085,689.891 812.484,661.791 860.381,634.196 			"/>
			<polygon fill="#1459DC" points="812.484,661.791 860.085,689.891 812.189,717.485 			"/>
			<polygon fill="#0C46CF" points="859.79,745.586 812.189,717.485 860.085,689.891 			"/>
			<polygon fill="#0E4BD7" points="812.189,717.485 859.79,745.586 811.895,773.18 			"/>
			<polygon fill="#0839C7" points="859.495,801.281 811.895,773.18 859.79,745.586 			"/>
			<polygon fill="#0633C0" points="811.895,773.18 859.495,801.281 811.599,828.876 			"/>
			<polygon fill="#2780EA" points="812.78,606.095 765.18,577.994 813.075,550.4 			"/>
			<polygon fill="#3A95F3" points="765.18,577.994 812.78,606.095 764.884,633.69 			"/>
			<polygon fill="#2C83EE" points="812.484,661.791 764.884,633.69 812.78,606.095 			"/>
			<polygon fill="#2374E8" points="764.884,633.69 812.484,661.791 764.589,689.385 			"/>
			<polygon fill="#1862E0" points="812.189,717.485 764.589,689.385 812.484,661.791 			"/>
			<polygon fill="#1253D6" points="764.589,689.385 812.189,717.485 764.293,745.08 			"/>
			<polygon fill="#0D49D1" points="811.895,773.18 764.293,745.08 812.189,717.485 			"/>
			<polygon fill="#0635BE" points="764.293,745.08 811.895,773.18 763.998,800.775 			"/>
			<polygon fill="#0530BB" points="811.599,828.876 763.998,800.775 811.895,773.18 			"/>
			<polygon fill="#3C99F6" points="717.873,494.2 765.475,522.3 717.577,549.895 			"/>
			<polygon fill="#439FF6" points="765.18,577.994 717.577,549.895 765.475,522.3 			"/>
			<polygon fill="#5FB6FB" points="717.577,549.895 765.18,577.994 717.282,605.589 			"/>
			<polygon fill="#429CF3" points="764.884,633.69 717.282,605.589 765.18,577.994 			"/>
			<polygon fill="#388DEE" points="717.282,605.589 764.884,633.69 716.987,661.284 			"/>
			<polygon fill="#2676E6" points="764.589,689.385 716.987,661.284 764.884,633.69 			"/>
			<polygon fill="#1F6AE0" points="716.987,661.284 764.589,689.385 716.691,716.979 			"/>
			<polygon fill="#1252D2" points="764.293,745.08 716.691,716.979 764.589,689.385 			"/>
			<polygon fill="#1252D3" points="716.691,716.979 764.293,745.08 716.396,772.674 			"/>
			<polygon fill="#0A40C8" points="763.998,800.775 716.396,772.674 764.293,745.08 			"/>
			<polygon fill="#0D47CD" points="716.396,772.674 763.998,800.775 716.102,828.369 			"/>
			<polygon fill="#4BA8F9" points="670.273,466.099 717.873,494.2 669.979,521.794 			"/>
			<polygon fill="#55AFFB" points="717.577,549.895 669.979,521.794 717.873,494.2 			"/>
			<polygon fill="#77C6FD" points="669.979,521.794 717.577,549.895 669.683,577.488 			"/>
			<polygon fill="#6EC0FC" points="717.282,605.589 669.683,577.488 717.577,549.895 			"/>
			<polygon fill="#66B7F9" points="669.683,577.488 717.282,605.589 669.388,633.184 			"/>
			<polygon fill="#479BF1" points="716.987,661.284 669.388,633.184 717.282,605.589 			"/>
			<polygon fill="#3B8DEB" points="669.388,633.184 716.987,661.284 669.093,688.879 			"/>
			<polygon fill="#2B7BE6" points="716.691,716.979 669.093,688.879 716.987,661.284 			"/>
			<polygon fill="#368BF0" points="669.093,688.879 716.691,716.979 668.797,744.573 			"/>
			<polygon fill="#2676E8" points="716.396,772.674 668.797,744.573 716.691,716.979 			"/>
			<polygon fill="#195EDB" points="668.797,744.573 716.396,772.674 668.502,800.269 			"/>
			<polygon fill="#1354D6" points="716.102,828.369 668.502,800.269 716.396,772.674 			"/>
			<polygon fill="#6AC0FC" points="669.979,521.794 622.377,493.693 670.273,466.099 			"/>
			<polygon fill="#70C0FC" points="622.377,493.693 669.979,521.794 622.081,549.388 			"/>
			<polygon fill="#7BC7FD" points="669.683,577.488 622.081,549.388 669.979,521.794 			"/>
			<polygon fill="#81C6FB" points="622.081,549.388 669.683,577.488 621.786,605.082 			"/>
			<polygon fill="#77BFF9" points="669.388,633.184 621.786,605.082 669.683,577.488 			"/>
			<polygon fill="#73BBF8" points="621.786,605.082 669.388,633.184 621.49,660.778 			"/>
			<polygon fill="#55A4F3" points="669.093,688.879 621.49,660.778 669.388,633.184 			"/>
			<polygon fill="#3888E8" points="621.49,660.778 669.093,688.879 621.195,716.473 			"/>
			<polygon fill="#3484EA" points="668.797,744.573 621.195,716.473 669.093,688.879 			"/>
			<polygon fill="#2068DE" points="621.195,716.473 668.797,744.573 620.9,772.168 			"/>
			<polygon fill="#1454D3" points="668.502,800.269 620.9,772.168 668.797,744.573 			"/>
			<polygon fill="#1150D2" points="620.9,772.168 668.502,800.269 620.604,827.863 			"/>
			<polygon fill="#BEE8FD" points="575.365,354.202 622.967,382.303 575.07,409.897 			"/>
			<polygon fill="#91D2FB" points="622.672,437.998 575.07,409.897 622.967,382.303 			"/>
			<polygon fill="#58AFF7" points="622.377,493.693 574.774,465.593 622.672,437.998 			"/>
			<polygon fill="#64B7FA" points="574.774,465.593 622.377,493.693 574.479,521.287 			"/>
			<polygon fill="#6BBBFA" points="622.081,549.388 574.479,521.287 622.377,493.693 			"/>
			<polygon fill="#91D3FD" points="574.479,521.287 622.081,549.388 574.185,576.982 			"/>
			<polygon fill="#93D2FD" points="621.786,605.082 574.185,576.982 622.081,549.388 			"/>
			<polygon fill="#7ABEF7" points="574.185,576.982 621.786,605.082 573.889,632.678 			"/>
			<polygon fill="#81C0F8" points="621.49,660.778 573.889,632.678 621.786,605.082 			"/>
			<polygon fill="#6AB0F5" points="573.889,632.678 621.49,660.778 573.594,688.372 			"/>
			<polygon fill="#3F8EEB" points="621.195,716.473 573.594,688.372 621.49,660.778 			"/>
			<polygon fill="#3986E9" points="573.594,688.372 621.195,716.473 573.299,744.067 			"/>
			<polygon fill="#2269DD" points="620.9,772.168 573.299,744.067 621.195,716.473 			"/>
			<polygon fill="#124ECD" points="573.299,744.067 620.9,772.168 573.003,799.763 			"/>
			<polygon fill="#0B41C3" points="620.604,827.863 573.003,799.763 620.9,772.168 			"/>
			<polygon fill="#84CEFD" points="527.175,437.492 574.774,465.593 526.88,493.188 			"/>
			<polygon fill="#78C5FC" points="574.479,521.287 526.88,493.188 574.774,465.593 			"/>
			<polygon fill="#73BEFB" points="526.88,493.188 574.479,521.287 526.585,548.882 			"/>
			<polygon fill="#85CAFD" points="574.185,576.982 526.585,548.882 574.479,521.287 			"/>
			<polygon fill="#70BAF8" points="526.585,548.882 574.185,576.982 526.289,604.576 			"/>
			<polygon fill="#5DAAF3" points="573.889,632.678 526.289,604.576 574.185,576.982 			"/>
			<polygon fill="#56A5F2" points="526.289,604.576 573.889,632.678 525.994,660.271 			"/>
			<polygon fill="#5CA6F2" points="573.594,688.372 525.994,660.271 573.889,632.678 			"/>
			<polygon fill="#4597F0" points="525.994,660.271 573.594,688.372 525.699,715.967 			"/>
			<polygon fill="#4495F1" points="573.299,744.067 525.699,715.967 573.594,688.372 			"/>
			<polygon fill="#3383EC" points="525.699,715.967 573.299,744.067 525.403,771.661 			"/>
			<polygon fill="#1C62DE" points="573.003,799.763 525.403,771.661 573.299,744.067 			"/>
			<polygon fill="#1556D6" points="525.403,771.661 573.003,799.763 525.108,827.356 			"/>
			<polygon fill="#D6EFFD" points="479.869,353.696 527.471,381.797 479.573,409.392 			"/>
			<polygon fill="#C9EAFD" points="527.175,437.492 479.573,409.392 527.471,381.797 			"/>
			<polygon fill="#C0EAFE" points="479.573,409.392 527.175,437.492 479.278,465.086 			"/>
			<polygon fill="#99DAFE" points="526.88,493.188 479.278,465.086 527.175,437.492 			"/>
			<polygon fill="#97D7FE" points="479.278,465.086 526.88,493.188 478.982,520.781 			"/>
			<polygon fill="#82C7FC" points="526.585,548.882 478.982,520.781 526.88,493.188 			"/>
			<polygon fill="#71B9F9" points="478.982,520.781 526.585,548.882 478.688,576.476 			"/>
			<polygon fill="#6FBAF9" points="526.289,604.576 478.688,576.476 526.585,548.882 			"/>
			<polygon fill="#63B1F7" points="478.688,576.476 526.289,604.576 478.393,632.171 			"/>
			<polygon fill="#54A4F3" points="525.994,660.271 478.393,632.171 526.289,604.576 			"/>
			<polygon fill="#3D36EC" points="478.393,632.171 525.994,660.271 478.097,687.866 			"/>
			<polygon fill="#3D8FEF" points="525.699,715.967 478.097,687.866 525.994,660.271 			"/>
			<polygon fill="#2976E5" points="478.097,687.866 525.699,715.967 477.802,743.561 			"/>
			<polygon fill="#2B78E8" points="525.403,771.661 477.802,743.561 525.699,715.967 			"/>
			<polygon fill="#185BDA" points="477.802,743.561 525.403,771.661 477.507,799.256 			"/>
			<polygon fill="#1453D4" points="525.108,827.356 477.507,799.256 525.403,771.661 			"/>
			<polygon fill="#D0EBFC" points="479.573,409.392 431.975,381.291 479.869,353.696 			"/>
			<polygon fill="#C6E9FD" points="431.975,381.291 479.573,409.392 431.679,436.986 			"/>
			<polygon fill="#C8F0FE" points="479.278,465.086 431.679,436.986 479.573,409.392 			"/>
			<polygon fill="#B8E9FE" points="431.679,436.986 479.278,465.086 431.384,492.681 			"/>
			<polygon fill="#A5DEFE" points="478.982,520.781 431.384,492.681 479.278,465.086 			"/>
			<polygon fill="#AFE3FD" points="431.384,492.681 478.982,520.781 431.088,548.375 			"/>
			<polygon fill="#95D1FC" points="478.688,576.476 431.088,548.375 478.982,520.781 			"/>
			<polygon fill="#79BFF9" points="431.088,548.375 478.688,576.476 430.793,604.07 			"/>
			<polygon fill="#59A8F4" points="478.393,632.171 430.793,604.07 478.688,576.476 			"/>
			<polygon fill="#3C8CEA" points="430.793,604.07 478.393,632.171 430.498,659.766 			"/>
			<polygon fill="#2D79E3" points="478.097,687.866 430.498,659.766 478.393,632.171 			"/>
			<polygon fill="#1F66DC" points="430.498,659.766 478.097,687.866 430.202,715.461 			"/>
			<polygon fill="#1A5DD8" points="477.802,743.561 430.202,715.461 478.097,687.866 			"/>
			<polygon fill="#1654D5" points="430.202,715.461 477.802,743.561 429.907,771.155 			"/>
			<polygon fill="#1453D5" points="477.507,799.256 429.907,771.155 477.802,743.561 			"/>
			<polygon fill="#104CD1" points="429.907,771.155 477.507,799.256 429.612,826.851 			"/>
			<polygon fill="#E0F3FE" points="431.975,381.291 384.372,353.189 432.27,325.596 			"/>
			<polygon fill="#D9F2FE" points="384.372,353.189 431.975,381.291 384.077,408.885 			"/>
			<polygon fill="#C0E7FE" points="431.679,436.986 384.077,408.885 431.975,381.291 			"/>
			<polygon fill="#AFE2FE" points="384.077,408.885 431.679,436.986 383.781,464.58 			"/>
			<polygon fill="#B7E8FE" points="431.384,492.681 383.781,464.58 431.679,436.986 			"/>
			<polygon fill="#ACE1FE" points="383.781,464.58 431.384,492.681 383.486,520.275 			"/>
			<polygon fill="#91CDFC" points="431.088,548.375 383.486,520.275 431.384,492.681 			"/>
			<polygon fill="#6DB4F7" points="383.486,520.275 431.088,548.375 383.191,575.97 			"/>
			<polygon fill="#6AB4F7" points="430.793,604.07 383.191,575.97 431.088,548.375 			"/>
			<polygon fill="#4897EE" points="383.191,575.97 430.793,604.07 382.896,631.665 			"/>
			<polygon fill="#3787E9" points="430.498,659.766 382.896,631.665 430.793,604.07 			"/>
			<polygon fill="#2975E4" points="382.896,631.665 430.498,659.766 382.601,687.359 			"/>
			<polygon fill="#2068DF" points="430.202,715.461 382.601,687.359 430.498,659.766 			"/>
			<polygon fill="#195DDB" points="382.601,687.359 430.202,715.461 382.305,743.055 			"/>
			<polygon fill="#1858D9" points="429.907,771.155 382.305,743.055 430.202,715.461 			"/>
			<polygon fill="#0D42C9" points="382.305,743.055 429.907,771.155 382.01,798.75 			"/>
			<polygon fill="#0A3DC4" points="429.612,826.851 382.01,798.75 429.907,771.155 			"/>
			<polygon fill="#E0F3FE" points="336.771,325.09 384.372,353.189 336.476,380.785 			"/>
			<polygon fill="#CDEEFE" points="336.476,380.785 384.077,408.885 336.181,436.479 			"/>
			<polygon fill="#AEDFFE" points="383.781,464.58 336.181,436.479 384.077,408.885 			"/>
			<polygon fill="#A1D9FE" points="336.181,436.479 383.781,464.58 335.885,492.175 			"/>
			<polygon fill="#9FD8FD" points="383.486,520.275 335.885,492.175 383.781,464.58 			"/>
			<polygon fill="#83C4FC" points="335.885,492.175 383.486,520.275 335.59,547.869 			"/>
			<polygon fill="#70B6F7" points="383.191,575.97 335.59,547.869 383.486,520.275 			"/>
			<polygon fill="#60AAF4" points="335.59,547.869 383.191,575.97 335.295,603.563 			"/>
			<polygon fill="#4290EB" points="382.896,631.665 335.295,603.563 383.191,575.97 			"/>
			<polygon fill="#3483E9" points="335.295,603.563 382.896,631.665 335,659.259 			"/>
			<polygon fill="#2671E2" points="382.601,687.359 335,659.259 382.896,631.665 			"/>
			<polygon fill="#1D62DC" points="335,659.259 382.601,687.359 334.705,714.954 			"/>
			<polygon fill="#1A5EDC" points="382.305,743.055 334.705,714.954 382.601,687.359 			"/>
			<polygon fill="#124ED4" points="334.705,714.954 382.305,743.055 334.409,770.648 			"/>
			<polygon fill="#104BD2" points="382.01,798.75 334.409,770.648 382.305,743.055 			"/>
			<polygon fill="#104AD2" points="334.409,770.648 382.01,798.75 334.114,826.344 			"/>
			<polygon fill="#DEF3FF" points="288.876,352.683 336.476,380.785 288.581,408.379 			"/>
			<polygon fill="#BAE5FE" points="288.581,408.379 336.181,436.479 288.286,464.073 			"/>
			<polygon fill="#92CDFD" points="335.885,492.175 288.286,464.073 336.181,436.479 			"/>
			<polygon fill="#76B7F8" points="288.286,464.073 335.885,492.175 287.99,519.769 			"/>
			<polygon fill="#7CBDFA" points="335.59,547.869 287.99,519.769 335.885,492.175 			"/>
			<polygon fill="#7CBCF8" points="287.99,519.769 335.59,547.869 287.695,575.463 			"/>
			<polygon fill="#5BA4F2" points="335.295,603.563 287.695,575.463 335.59,547.869 			"/>
			<polygon fill="#418DE9" points="287.695,575.463 335.295,603.563 287.4,631.159 			"/>
			<polygon fill="#2F7AE4" points="335,659.259 287.4,631.159 335.295,603.563 			"/>
			<polygon fill="#2268DD" points="287.4,631.159 335,659.259 287.104,686.854 			"/>
			<polygon fill="#1F63DD" points="334.705,714.954 287.104,686.854 335,659.259 			"/>
			<polygon fill="#1653D4" points="287.104,686.854 334.705,714.954 286.81,742.548 			"/>
			<polygon fill="#114AD1" points="334.409,770.648 286.81,742.548 334.705,714.954 			"/>
			<polygon fill="#0C3EC8" points="286.81,742.548 334.409,770.648 286.514,798.244 			"/>
			<polygon fill="#0C3FC9" points="334.114,826.344 286.514,798.244 334.409,770.648 			"/>
			<polygon fill="#DDF3FF" points="288.581,408.379 240.979,380.278 288.876,352.683 			"/>
			<polygon fill="#BBE5FE" points="288.286,464.073 240.684,435.974 288.581,408.379 			"/>
			<polygon fill="#9AD1FD" points="240.684,435.974 288.286,464.073 240.389,491.668 			"/>
			<polygon fill="#83BAF6" points="240.389,491.668 287.99,519.769 240.094,547.363 			"/>
			<polygon fill="#70AFF4" points="287.695,575.463 240.094,547.363 287.99,519.769 			"/>
			<polygon fill="#539CEF" points="240.094,547.363 287.695,575.463 239.798,603.058 			"/>
			<polygon fill="#438FEB" points="287.4,631.159 239.798,603.058 287.695,575.463 			"/>
			<polygon fill="#3984E9" points="239.798,603.058 287.4,631.159 239.503,658.753 			"/>
			<polygon fill="#2064DB" points="287.104,686.854 239.503,658.753 287.4,631.159 			"/>
			<polygon fill="#1552D0" points="239.503,658.753 287.104,686.854 239.208,714.448 			"/>
			<polygon fill="#144DCF" points="286.81,742.548 239.208,714.448 287.104,686.854 			"/>
			<polygon fill="#0B3CC2" points="239.208,714.448 286.81,742.548 238.913,770.143 			"/>
			<polygon fill="#0937C0" points="286.514,798.244 238.913,770.143 286.81,742.548 			"/>
			<polygon fill="#0832BA" points="238.913,770.143 286.514,798.244 238.617,825.838 			"/>
			<polygon fill="#D4EBFC" points="240.979,380.278 193.379,352.177 241.274,324.584 			"/>
			<polygon fill="#BEE4FE" points="193.084,407.872 240.684,435.974 192.789,463.567 			"/>
			<polygon fill="#9FD4FE" points="240.389,491.668 192.789,463.567 240.684,435.974 			"/>
			<polygon fill="#8BC5FC" points="192.789,463.567 240.389,491.668 192.494,519.263 			"/>
			<polygon fill="#7FB9F7" points="240.094,547.363 192.494,519.263 240.389,491.668 			"/>
			<polygon fill="#64A6F1" points="192.494,519.263 240.094,547.363 192.198,574.957 			"/>
			<polygon fill="#549CEF" points="239.798,603.058 192.198,574.957 240.094,547.363 			"/>
			<polygon fill="#428AE8" points="192.198,574.957 239.798,603.058 191.903,630.652 			"/>
			<polygon fill="#3880E6" points="239.503,658.753 191.903,630.652 239.798,603.058 			"/>
			<polygon fill="#1C5CD4" points="191.903,630.652 239.503,658.753 191.608,686.347 			"/>
			<polygon fill="#1A59D5" points="239.208,714.448 191.608,686.347 239.503,658.753 			"/>
			<polygon fill="#1146C8" points="191.608,686.347 239.208,714.448 191.313,742.042 			"/>
			<polygon fill="#0D3EC3" points="238.913,770.143 191.313,742.042 239.208,714.448 			"/>
			<polygon fill="#0D3ABF" points="191.313,742.042 238.913,770.143 191.018,797.737 			"/>
			<polygon fill="#072DB3" points="238.617,825.838 191.018,797.737 238.913,770.143 			"/>
			<polygon fill="#96CBFC" points="192.494,519.263 144.894,491.162 192.789,463.567 			"/>
			<polygon fill="#5FA0EE" points="192.198,574.957 144.599,546.856 192.494,519.263 			"/>
			<polygon fill="#5195E8" points="144.599,546.856 192.198,574.957 144.304,602.551 			"/>
			<polygon fill="#3B80E2" points="191.903,630.652 144.304,602.551 192.198,574.957 			"/>
			<polygon fill="#3174DD" points="144.304,602.551 191.903,630.652 144.008,658.246 			"/>
			<polygon fill="#1F5ED4" points="191.608,686.347 144.008,658.246 191.903,630.652 			"/>
			<polygon fill="#174EC9" points="144.008,658.246 191.608,686.347 143.713,713.941 			"/>
			<polygon fill="#1042C4" points="191.313,742.042 143.713,713.941 191.608,686.347 			"/>
			<polygon fill="#0D39BB" points="143.713,713.941 191.313,742.042 143.417,769.636 			"/>
			<polygon fill="#0F3DC3" points="191.018,797.737 143.417,769.636 191.313,742.042 			"/>
			<polygon fill="#0A31B3" points="143.417,769.636 191.018,797.737 143.123,825.332 			"/>
			<polygon fill="#A0D0FD" points="144.599,546.856 96.995,518.756 144.894,491.162 			"/>
			<polygon fill="#9CCBFB" points="96.995,518.756 144.599,546.856 96.7,574.45 			"/>
			<polygon fill="#79B2F3" points="144.304,602.551 96.7,574.45 144.599,546.856 			"/>
			<polygon fill="#6BA6EF" points="96.7,574.45 144.304,602.551 96.404,630.146 			"/>
			<polygon fill="#4486E5" points="144.008,658.246 96.404,630.146 144.304,602.551 			"/>
			<polygon fill="#3776DE" points="96.404,630.146 144.008,658.246 96.109,685.841 			"/>
			<polygon fill="#1D56CC" points="143.713,713.941 96.109,685.841 144.008,658.246 			"/>
			<polygon fill="#1444BF" points="96.109,685.841 143.713,713.941 95.814,741.536 			"/>
			<polygon fill="#0B34B2" points="143.417,769.636 95.814,741.536 143.713,713.941 			"/>
			<polygon fill="#092EAB" points="95.814,741.536 143.417,769.636 95.519,797.231 			"/>
			<polygon fill="#0628A5" points="143.123,825.332 95.519,797.231 143.417,769.636 			"/>
			<polygon fill="#A1CDFB" points="96.995,518.756 49.396,490.655 97.291,463.062 			"/>
			<polygon fill="#A7D0FB" points="49.396,490.655 96.995,518.756 49.1,546.351 			"/>
			<polygon fill="#A6CFFB" points="96.7,574.45 49.1,546.351 96.995,518.756 			"/>
			<polygon fill="#A1CBF9" points="49.1,546.351 96.7,574.45 48.805,602.045 			"/>
			<polygon fill="#7BAFF0" points="96.404,630.146 48.805,602.045 96.7,574.45 			"/>
			<polygon fill="#6BA2EC" points="48.805,602.045 96.404,630.146 48.51,657.74 			"/>
			<polygon fill="#4F8AE6" points="96.109,685.841 48.51,657.74 96.404,630.146 			"/>
			<polygon fill="#366DD5" points="48.51,657.74 96.109,685.841 48.214,713.436 			"/>
			<polygon fill="#1D4FC4" points="95.814,741.536 48.214,713.436 96.109,685.841 			"/>
			<polygon fill="#1A49C2" points="48.214,713.436 95.814,741.536 47.919,769.13 			"/>
			<polygon fill="#0C31AC" points="95.519,797.231 47.919,769.13 95.814,741.536 			"/>
			<polygon fill="#0B2EA6" points="47.919,769.13 95.519,797.231 47.624,824.825 			"/>
			<polygon fill="#A8CDF8" points="48.805,602.045 1.205,573.944 49.1,546.351 			"/>
			<polygon fill="#9BC1F4" points="1.205,573.944 48.805,602.045 0.91,629.64 			"/>
			<polygon fill="#6FA0E8" points="48.51,657.74 0.91,629.64 48.805,602.045 			"/>
			<polygon fill="#5788DD" points="0.91,629.64 48.51,657.74 0.614,685.334 			"/>
			<polygon fill="#4074D6" points="48.214,713.436 0.614,685.334 48.51,657.74 			"/>
			<polygon fill="#305FCA" points="0.614,685.334 48.214,713.436 0.319,741.029 			"/>
			<polygon fill="#2352C6" points="47.919,769.13 0.319,741.029 48.214,713.436 			"/>
			<polygon fill="#1841B6" points="0.319,741.029 47.919,769.13 0.024,796.725 			"/>
			<polygon fill="#1137AD" points="47.624,824.825 0.024,796.725 47.919,769.13 			"/>
			<polygon fill="#9FC2F2" points="-46.395,545.844 1.205,573.944 -46.69,601.538 			"/>
			<polygon fill="#9FC3F3" points="0.91,629.64 -46.69,601.538 1.205,573.944 			"/>
			<polygon fill="#628FDE" points="0.614,685.334 -46.985,657.234 0.91,629.64 			"/>
			<polygon fill="#4471CE" points="-46.985,657.234 0.614,685.334 -47.28,712.929 			"/>
			<polygon fill="#2C57C0" points="0.319,741.029 -47.28,712.929 0.614,685.334 			"/>
			<polygon fill="#1D44B0" points="-47.28,712.929 0.319,741.029 -47.576,768.623 			"/>
			<polygon fill="#173DAB" points="0.024,796.725 -47.576,768.623 0.319,741.029 			"/>
			<polygon fill="#163CAB" points="-47.576,768.623 0.024,796.725 -47.871,824.319 			"/>
		</g>
	</g>
	<g display="none">
		<g display="inline">
			<radialGradient id="SVGID_7_" cx="243.7368" cy="671.9473" r="222.9281" gradientUnits="userSpaceOnUse">
				<stop  offset="0" style="stop-color:#90C1DF"/>
				<stop  offset="1" style="stop-color:#0071B5"/>
			</radialGradient>
			<path fill="url(#SVGID_7_)" d="M340.701,654.125h-6.804l-1.104,5.74h-3.8l6.406-30.151h3.866l6.537,30.151h-3.976
				L340.701,654.125z M340.104,650.809l-2.805-14.512l-2.783,14.512H340.104z"/>
			<radialGradient id="SVGID_8_" cx="243.7368" cy="671.9473" r="222.9287" gradientUnits="userSpaceOnUse">
				<stop  offset="0" style="stop-color:#90C1DF"/>
				<stop  offset="1" style="stop-color:#0071B5"/>
			</radialGradient>
			<path fill="url(#SVGID_8_)" d="M348.652,659.865v-30.151h8.239c2.135,0,3.67,0.44,4.605,1.316
				c0.936,0.876,1.403,2.314,1.403,4.317v3.334c0,1.4-0.244,2.426-0.73,3.08c-0.485,0.659-1.398,1.193-2.738,1.604
				c1.458,0.368,2.5,0.952,3.126,1.756c0.625,0.803,0.938,1.969,0.938,3.499v4.661c0.073,4.537-2.539,6.73-7.84,6.583H348.652z
				 M352.495,641.93h4.198c1.825-0.014,2.716-0.92,2.672-2.715v-3.315c0.044-1.797-0.847-2.702-2.672-2.717h-4.198V641.93z
				 M352.495,656.396h3.8c2.443-0.012,3.666-1.146,3.666-3.4v-4.351c0-2.253-1.223-3.389-3.666-3.403h-3.8V656.396z"/>
			<radialGradient id="SVGID_9_" cx="243.7368" cy="671.9473" r="222.9281" gradientUnits="userSpaceOnUse">
				<stop  offset="0" style="stop-color:#90C1DF"/>
				<stop  offset="1" style="stop-color:#0071B5"/>
			</radialGradient>
			<path fill="url(#SVGID_9_)" d="M380.879,638.66h-3.534v-2.539c0-2.372-0.988-3.557-2.96-3.557c-1.061,0-1.84,0.28-2.341,0.838
				c-0.5,0.562-0.75,1.438-0.75,2.63c0,0.973,0.103,1.757,0.309,2.354c0.206,0.596,0.56,1.146,1.061,1.646l6.404,6.361
				c0.885,0.897,1.524,1.858,1.922,2.882c0.397,1.023,0.596,2.249,0.596,3.679c0,2.325-0.588,4.099-1.766,5.322
				c-0.619,0.617-1.426,1.112-2.42,1.479c-0.993,0.369-2.043,0.552-3.148,0.552c-1.177,0-2.292-0.216-3.345-0.648
				c-1.053-0.436-1.91-1.035-2.572-1.804c-1.003-1.134-1.503-2.738-1.503-4.813v-3.382h3.536v3.027c0,1.384,0.25,2.4,0.75,3.049
				c0.633,0.84,1.67,1.259,3.114,1.259c1.193,0,2.103-0.328,2.727-0.983c0.627-0.654,0.94-1.616,0.94-2.882
				c0-1.076-0.17-1.962-0.508-2.661c-0.339-0.7-1.009-1.542-2.01-2.529l-4.595-4.549c-1.325-1.312-2.187-2.42-2.584-3.327
				c-0.396-0.905-0.596-2.219-0.596-3.941c0-1.28,0.136-2.322,0.409-3.126c0.272-0.803,0.725-1.485,1.357-2.043
				c1.267-1.136,3.005-1.702,5.214-1.702c2.121,0,3.699,0.543,4.738,1.626c1.037,1.08,1.557,2.735,1.557,4.957V638.66z"/>
			<radialGradient id="SVGID_10_" cx="243.7368" cy="671.9473" r="222.9286" gradientUnits="userSpaceOnUse">
				<stop  offset="0" style="stop-color:#90C1DF"/>
				<stop  offset="1" style="stop-color:#0071B5"/>
			</radialGradient>
			<path fill="url(#SVGID_10_)" d="M393.669,633.337v26.528h-3.844v-26.528h-5.897v-3.623h15.64v3.623H393.669z"/>
			<radialGradient id="SVGID_11_" cx="243.7373" cy="671.9473" r="222.9283" gradientUnits="userSpaceOnUse">
				<stop  offset="0" style="stop-color:#90C1DF"/>
				<stop  offset="1" style="stop-color:#0071B5"/>
			</radialGradient>
			<path fill="url(#SVGID_11_)" d="M406.127,646.832v13.033h-3.844v-30.151h7.666c2.297,0,4.004,0.528,5.123,1.581
				c1.119,1.052,1.68,2.662,1.68,4.826v3.203c0,2.238-0.254,3.844-0.764,4.813c-0.506,0.973-1.52,1.77-3.037,2.386l5.082,13.342
				h-3.887l-5.018-13.033H406.127z M406.127,643.807h3.887c2.063,0.032,3.076-0.936,3.047-2.894v-4.838
				c0.029-1.956-0.984-2.921-3.047-2.893h-3.887V643.807z"/>
			<radialGradient id="SVGID_12_" cx="243.7378" cy="671.9473" r="222.9279" gradientUnits="userSpaceOnUse">
				<stop  offset="0" style="stop-color:#90C1DF"/>
				<stop  offset="1" style="stop-color:#0071B5"/>
			</radialGradient>
			<path fill="url(#SVGID_12_)" d="M431.617,654.125h-6.805l-1.102,5.74h-3.801l6.406-30.151h3.863l6.539,30.151h-3.977
				L431.617,654.125z M431.02,650.809l-2.805-14.512l-2.783,14.512H431.02z"/>
			<radialGradient id="SVGID_13_" cx="243.7363" cy="671.9473" r="222.9291" gradientUnits="userSpaceOnUse">
				<stop  offset="0" style="stop-color:#90C1DF"/>
				<stop  offset="1" style="stop-color:#0071B5"/>
			</radialGradient>
			<path fill="url(#SVGID_13_)" d="M450.037,649.308h3.535v5.256c0,1.799-0.617,3.205-1.844,4.218
				c-1.229,1.019-2.936,1.525-5.113,1.525c-2.432,0-4.242-0.567-5.436-1.701c-1.193-1.133-1.789-2.855-1.789-5.168v-17.316
				c0-2.488,0.686-4.286,2.055-5.391c1.221-0.972,2.908-1.457,5.059-1.457c2.135,0,3.811,0.507,5.023,1.523
				c1.217,1.016,1.822,2.415,1.822,4.198v4.152h-3.555v-3.623c0-1.958-1.084-2.938-3.248-2.938c-1.164,0-2.006,0.279-2.529,0.837
				c-0.521,0.562-0.783,1.46-0.783,2.698v17.316c0,1.267,0.256,2.176,0.773,2.729c0.516,0.553,1.367,0.828,2.563,0.828
				c2.311,0,3.467-0.979,3.467-2.938V649.308z"/>
			<radialGradient id="SVGID_14_" cx="243.7373" cy="671.9473" r="222.9275" gradientUnits="userSpaceOnUse">
				<stop  offset="0" style="stop-color:#90C1DF"/>
				<stop  offset="1" style="stop-color:#0071B5"/>
			</radialGradient>
			<path fill="url(#SVGID_14_)" d="M465.102,633.337v26.528h-3.844v-26.528h-5.896v-3.623H471v3.623H465.102z"/>
		</g>
		<g display="inline">
			<radialGradient id="SVGID_15_" cx="243.7368" cy="671.9473" r="222.9283" gradientUnits="userSpaceOnUse">
				<stop  offset="0" style="stop-color:#90C1DF"/>
				<stop  offset="1" style="stop-color:#0071B5"/>
			</radialGradient>
			<path fill="url(#SVGID_15_)" d="M328.994,689.278v-23.392h6.392c1.657,0,2.847,0.342,3.573,1.021
				c0.726,0.678,1.088,1.795,1.088,3.349v2.587c0,1.086-0.189,1.882-0.566,2.39c-0.376,0.511-1.085,0.925-2.125,1.244
				c1.131,0.285,1.939,0.739,2.425,1.362c0.485,0.622,0.728,1.528,0.728,2.715v3.616c0.057,3.519-1.97,5.222-6.082,5.107H328.994z
				 M331.975,675.362h3.257c1.415-0.011,2.107-0.711,2.073-2.106v-2.571c0.034-1.394-0.658-2.096-2.073-2.107h-3.257V675.362z
				 M331.975,686.588h2.948c1.896-0.013,2.845-0.892,2.845-2.64v-3.376c0-1.748-0.949-2.627-2.845-2.638h-2.948V686.588z"/>
			<radialGradient id="SVGID_16_" cx="243.7368" cy="671.9473" r="222.9282" gradientUnits="userSpaceOnUse">
				<stop  offset="0" style="stop-color:#90C1DF"/>
				<stop  offset="1" style="stop-color:#0071B5"/>
			</radialGradient>
			<path fill="url(#SVGID_16_)" d="M351.665,684.823h-5.278l-0.856,4.455h-2.948l4.969-23.392h2.999l5.072,23.392h-3.084
				L351.665,684.823z M351.202,682.253l-2.176-11.26l-2.159,11.26H351.202z"/>
			<radialGradient id="SVGID_17_" cx="243.7363" cy="671.9473" r="222.9297" gradientUnits="userSpaceOnUse">
				<stop  offset="0" style="stop-color:#90C1DF"/>
				<stop  offset="1" style="stop-color:#0071B5"/>
			</radialGradient>
			<path fill="url(#SVGID_17_)" d="M365.955,681.087h2.742v4.079c0,1.394-0.477,2.484-1.43,3.271
				c-0.954,0.789-2.277,1.183-3.968,1.183c-1.885,0-3.29-0.439-4.215-1.318c-0.925-0.881-1.388-2.217-1.388-4.011v-13.434
				c0-1.931,0.531-3.325,1.593-4.182c0.948-0.755,2.256-1.132,3.925-1.132c1.656,0,2.956,0.395,3.898,1.183
				c0.942,0.789,1.413,1.873,1.413,3.256v3.223h-2.758v-2.812c0-1.52-0.841-2.278-2.519-2.278c-0.903,0-1.557,0.217-1.962,0.649
				c-0.406,0.437-0.608,1.133-0.608,2.093v13.434c0,0.982,0.199,1.688,0.6,2.116c0.399,0.429,1.062,0.643,1.988,0.643
				c1.792,0,2.689-0.761,2.689-2.278V681.087z"/>
			<radialGradient id="SVGID_18_" cx="243.7363" cy="671.9473" r="222.929" gradientUnits="userSpaceOnUse">
				<stop  offset="0" style="stop-color:#90C1DF"/>
				<stop  offset="1" style="stop-color:#0071B5"/>
			</radialGradient>
			<path fill="url(#SVGID_18_)" d="M371.576,665.887h2.981v10.23l5.947-10.23h3.307l-5.449,8.963l5.449,14.429h-3.239l-4.146-11.328
				l-1.869,3.067v8.261h-2.981V665.887z"/>
			<radialGradient id="SVGID_19_" cx="243.7368" cy="671.9473" r="222.9287" gradientUnits="userSpaceOnUse">
				<stop  offset="0" style="stop-color:#90C1DF"/>
				<stop  offset="1" style="stop-color:#0071B5"/>
			</radialGradient>
			<path fill="url(#SVGID_19_)" d="M390.854,677.231h6.237v12.047h-2.57v-1.423c-0.788,0.685-1.463,1.15-2.021,1.396
				c-0.56,0.245-1.234,0.368-2.022,0.368c-1.782,0-3.125-0.594-4.027-1.782c-0.548-0.708-0.823-1.89-0.823-3.547v-13.434
				c0-1.017,0.131-1.854,0.395-2.511c0.262-0.656,0.679-1.214,1.25-1.671c0.982-0.755,2.341-1.132,4.079-1.132
				c1.725,0,3.072,0.393,4.044,1.174c0.971,0.783,1.456,1.871,1.456,3.265v3.223h-2.741v-2.812c0-1.52-0.932-2.278-2.793-2.278
				c-0.983,0-1.7,0.217-2.151,0.649c-0.451,0.437-0.677,1.133-0.677,2.093v13.434c0,1.988,0.823,2.981,2.468,2.981
				c0.948,0,1.751-0.287,2.408-0.865c0.656-0.577,0.984-1.282,0.984-2.116v-4.609h-3.495V677.231z"/>
			<radialGradient id="SVGID_20_" cx="243.7363" cy="671.9473" r="222.9293" gradientUnits="userSpaceOnUse">
				<stop  offset="0" style="stop-color:#90C1DF"/>
				<stop  offset="1" style="stop-color:#0071B5"/>
			</radialGradient>
			<path fill="url(#SVGID_20_)" d="M403.449,679.167v10.111h-2.983v-23.392h5.946c1.783,0,3.109,0.409,3.977,1.226
				s1.303,2.066,1.303,3.745v2.484c0,1.736-0.197,2.981-0.592,3.734c-0.393,0.755-1.18,1.372-2.355,1.851l3.941,10.352h-3.016
				l-3.891-10.111H403.449z M403.449,676.819h3.016c1.6,0.023,2.387-0.725,2.363-2.244v-3.754c0.023-1.517-0.764-2.267-2.363-2.244
				h-3.016V676.819z"/>
			<radialGradient id="SVGID_21_" cx="243.7368" cy="671.9473" r="222.9291" gradientUnits="userSpaceOnUse">
				<stop  offset="0" style="stop-color:#90C1DF"/>
				<stop  offset="1" style="stop-color:#0071B5"/>
			</radialGradient>
			<path fill="url(#SVGID_21_)" d="M426.428,671.097v12.971c0,1.132-0.09,1.986-0.273,2.563c-0.184,0.578-0.525,1.1-1.029,1.568
				c-1.016,0.95-2.49,1.422-4.42,1.422c-2.104,0-3.662-0.554-4.678-1.661c-0.412-0.446-0.693-0.942-0.84-1.491
				c-0.15-0.548-0.223-1.348-0.223-2.4v-12.971c0-1.131,0.09-1.985,0.273-2.562c0.184-0.577,0.525-1.1,1.027-1.568
				c1.018-0.948,2.496-1.423,4.439-1.423c2.09,0,3.643,0.556,4.662,1.662c0.41,0.446,0.689,0.94,0.84,1.484
				C426.354,669.23,426.428,670.035,426.428,671.097z M417.945,671.097v12.971c0,1.075,0.211,1.84,0.635,2.297
				c0.422,0.458,1.131,0.686,2.125,0.686s1.697-0.228,2.115-0.686c0.418-0.457,0.627-1.222,0.627-2.297v-12.971
				c0-1.073-0.209-1.84-0.627-2.296c-0.418-0.457-1.121-0.686-2.115-0.686s-1.703,0.229-2.125,0.686
				C418.156,669.257,417.945,670.023,417.945,671.097z"/>
			<radialGradient id="SVGID_22_" cx="243.7363" cy="671.9473" r="222.9295" gradientUnits="userSpaceOnUse">
				<stop  offset="0" style="stop-color:#90C1DF"/>
				<stop  offset="1" style="stop-color:#0071B5"/>
			</radialGradient>
			<path fill="url(#SVGID_22_)" d="M429.598,665.887h2.982v17.908c0,0.765,0.031,1.29,0.094,1.576
				c0.063,0.284,0.209,0.555,0.438,0.806c0.445,0.503,1.188,0.753,2.229,0.753c1.027,0,1.77-0.25,2.227-0.753
				c0.219-0.251,0.357-0.515,0.42-0.79c0.063-0.273,0.096-0.805,0.096-1.592v-17.908h2.98v17.908c0,1.142-0.102,2.054-0.309,2.733
				c-0.205,0.68-0.549,1.236-1.027,1.67c-1.053,0.95-2.514,1.422-4.387,1.422c-2.104,0-3.662-0.565-4.68-1.696
				c-0.707-0.788-1.063-2.164-1.063-4.129V665.887z"/>
			<radialGradient id="SVGID_23_" cx="243.7368" cy="671.9473" r="222.9291" gradientUnits="userSpaceOnUse">
				<stop  offset="0" style="stop-color:#90C1DF"/>
				<stop  offset="1" style="stop-color:#0071B5"/>
			</radialGradient>
			<path fill="url(#SVGID_23_)" d="M455.9,689.278h-3.785l-5.227-20.82c0.057,0.649,0.148,1.627,0.273,2.931
				c0.172,1.679,0.258,3.237,0.258,4.678v13.212h-2.98v-23.392h3.975l5.037,19.878c-0.057-0.651-0.148-1.621-0.273-2.914
				c-0.172-1.724-0.258-3.283-0.258-4.677v-12.287h2.98V689.278z"/>
			<radialGradient id="SVGID_24_" cx="243.7368" cy="671.9473" r="222.9293" gradientUnits="userSpaceOnUse">
				<stop  offset="0" style="stop-color:#90C1DF"/>
				<stop  offset="1" style="stop-color:#0071B5"/>
			</radialGradient>
			<path fill="url(#SVGID_24_)" d="M459.416,689.278v-23.392h6.408c1.678,0,2.963,0.423,3.846,1.268
				c0.885,0.847,1.328,2.068,1.328,3.667v13.521c0,1.602-0.443,2.823-1.328,3.668c-0.883,0.844-2.168,1.269-3.846,1.269H459.416z
				 M462.398,686.588h3.152c0.867,0,1.496-0.2,1.883-0.601c0.389-0.399,0.584-1.039,0.584-1.92v-12.971
				c0-0.88-0.195-1.52-0.584-1.918c-0.387-0.402-1.016-0.602-1.883-0.602h-3.152V686.588z"/>
		</g>
	</g>
	<g display="none">
		<g display="inline">
			<path fill="#3B8DEB" d="M312.99,782.23v-0.178c-0.24,0.277-0.477,0.498-0.709,0.672c-0.232,0.172-0.486,0.303-0.76,0.395
				c-0.271,0.088-0.57,0.133-0.893,0.133c-0.428,0-0.824-0.09-1.188-0.271c-0.365-0.18-0.68-0.438-0.947-0.775
				c-0.266-0.332-0.467-0.73-0.604-1.184c-0.139-0.453-0.207-0.945-0.207-1.473c0-1.115,0.273-1.988,0.818-2.611
				s1.262-0.936,2.152-0.936c0.516,0,0.947,0.09,1.303,0.266c0.354,0.176,0.697,0.449,1.033,0.813v-2.637
				c0-0.365,0.074-0.641,0.221-0.83c0.145-0.191,0.355-0.281,0.623-0.281c0.27,0,0.48,0.088,0.625,0.26
				c0.148,0.172,0.221,0.428,0.221,0.76v7.879c0,0.34-0.08,0.598-0.234,0.768c-0.16,0.168-0.361,0.254-0.611,0.254
				c-0.244,0-0.445-0.086-0.604-0.264C313.07,782.813,312.99,782.559,312.99,782.23z M309.479,779.609
				c0,0.482,0.074,0.895,0.225,1.234c0.15,0.342,0.357,0.596,0.617,0.77c0.262,0.172,0.547,0.26,0.857,0.26
				c0.314,0,0.6-0.084,0.859-0.246c0.26-0.166,0.469-0.414,0.623-0.752c0.154-0.342,0.23-0.762,0.23-1.266
				c0-0.479-0.076-0.887-0.23-1.227c-0.154-0.346-0.363-0.611-0.627-0.787c-0.266-0.186-0.555-0.271-0.867-0.271
				c-0.328,0-0.621,0.092-0.879,0.275c-0.256,0.188-0.455,0.457-0.598,0.803S309.479,779.15,309.479,779.609z"/>
			<path fill="#3B8DEB" d="M321.459,780.059h-3.494c0.004,0.406,0.086,0.764,0.244,1.072c0.16,0.313,0.371,0.545,0.637,0.699
				c0.264,0.162,0.553,0.236,0.871,0.236c0.215,0,0.41-0.023,0.586-0.072c0.176-0.047,0.346-0.131,0.514-0.236
				c0.166-0.105,0.318-0.223,0.459-0.346c0.139-0.121,0.318-0.287,0.541-0.494c0.094-0.08,0.225-0.121,0.393-0.121
				c0.184,0,0.33,0.051,0.445,0.15c0.113,0.1,0.17,0.244,0.17,0.424c0,0.164-0.063,0.352-0.189,0.57
				c-0.127,0.215-0.316,0.424-0.574,0.619c-0.252,0.199-0.572,0.363-0.961,0.498c-0.385,0.127-0.828,0.193-1.332,0.193
				c-1.146,0-2.037-0.328-2.676-0.982c-0.637-0.652-0.955-1.539-0.955-2.66c0-0.529,0.078-1.02,0.236-1.471
				c0.158-0.449,0.387-0.842,0.688-1.164c0.301-0.32,0.67-0.566,1.113-0.742c0.439-0.172,0.928-0.254,1.465-0.254
				c0.697,0,1.297,0.143,1.793,0.441c0.504,0.291,0.877,0.674,1.127,1.139c0.248,0.467,0.369,0.943,0.369,1.428
				c0,0.447-0.127,0.742-0.385,0.875C322.285,779.992,321.924,780.059,321.459,780.059z M317.965,779.045h3.238
				c-0.043-0.611-0.209-1.066-0.496-1.371c-0.285-0.303-0.662-0.453-1.127-0.453c-0.445,0-0.811,0.15-1.096,0.457
				C318.197,777.986,318.023,778.441,317.965,779.045z"/>
			<path fill="#3B8DEB" d="M330.186,780.918c0,0.49-0.121,0.912-0.357,1.262c-0.242,0.355-0.598,0.621-1.064,0.801
				c-0.467,0.182-1.039,0.271-1.711,0.271c-0.641,0-1.191-0.098-1.65-0.293c-0.459-0.197-0.795-0.445-1.014-0.736
				c-0.217-0.295-0.326-0.592-0.326-0.887c0-0.199,0.068-0.367,0.209-0.504c0.141-0.141,0.314-0.211,0.531-0.211
				c0.186,0,0.33,0.047,0.43,0.139c0.1,0.088,0.199,0.219,0.289,0.385c0.184,0.316,0.4,0.555,0.656,0.711
				c0.256,0.158,0.605,0.236,1.047,0.236c0.355,0,0.648-0.08,0.879-0.236c0.229-0.162,0.344-0.342,0.344-0.545
				c0-0.316-0.121-0.547-0.357-0.689c-0.238-0.143-0.629-0.283-1.176-0.412c-0.613-0.152-1.115-0.309-1.5-0.48
				c-0.385-0.168-0.693-0.389-0.926-0.662c-0.232-0.277-0.346-0.615-0.346-1.016c0-0.355,0.104-0.695,0.318-1.018
				c0.213-0.316,0.531-0.568,0.945-0.758c0.418-0.191,0.922-0.285,1.508-0.285c0.461,0,0.879,0.047,1.246,0.143
				c0.371,0.096,0.676,0.225,0.924,0.389c0.246,0.16,0.434,0.338,0.563,0.533c0.129,0.197,0.193,0.389,0.193,0.578
				c0,0.205-0.07,0.373-0.207,0.5c-0.137,0.131-0.332,0.195-0.586,0.195c-0.182,0-0.338-0.047-0.467-0.152
				c-0.129-0.104-0.275-0.26-0.441-0.473c-0.135-0.174-0.295-0.316-0.479-0.42s-0.432-0.158-0.746-0.158
				c-0.322,0-0.59,0.074-0.805,0.211c-0.213,0.135-0.32,0.305-0.32,0.51c0,0.189,0.08,0.344,0.236,0.461
				c0.158,0.123,0.365,0.223,0.635,0.301c0.264,0.076,0.633,0.172,1.098,0.287c0.555,0.137,1.008,0.295,1.359,0.482
				s0.617,0.408,0.797,0.666C330.098,780.299,330.186,780.592,330.186,780.918z"/>
			<path fill="#3B8DEB" d="M332.602,775.16c-0.25,0-0.461-0.082-0.635-0.229c-0.18-0.154-0.268-0.371-0.268-0.648
				c0-0.256,0.09-0.465,0.271-0.625c0.18-0.166,0.389-0.248,0.631-0.248c0.23,0,0.436,0.074,0.615,0.221
				c0.178,0.152,0.268,0.367,0.268,0.652c0,0.273-0.086,0.486-0.262,0.645C333.049,775.078,332.842,775.16,332.602,775.16z
				 M333.484,777.002v5.166c0,0.355-0.084,0.625-0.254,0.811c-0.17,0.184-0.387,0.273-0.648,0.273s-0.475-0.092-0.639-0.281
				c-0.164-0.188-0.244-0.457-0.244-0.803v-5.113c0-0.352,0.08-0.621,0.244-0.795c0.164-0.18,0.377-0.27,0.639-0.27
				s0.479,0.09,0.648,0.27C333.4,776.434,333.484,776.684,333.484,777.002z"/>
			<path fill="#3B8DEB" d="M341.898,777.297v5.189c0,0.592-0.061,1.104-0.189,1.529c-0.125,0.432-0.328,0.779-0.607,1.064
				c-0.279,0.275-0.645,0.486-1.096,0.621c-0.453,0.131-1.016,0.199-1.686,0.199c-0.615,0-1.166-0.084-1.65-0.256
				c-0.482-0.174-0.855-0.398-1.119-0.67c-0.26-0.271-0.391-0.549-0.391-0.84c0-0.221,0.074-0.395,0.223-0.529
				c0.146-0.143,0.326-0.211,0.535-0.211c0.262,0,0.49,0.117,0.688,0.348c0.096,0.115,0.193,0.238,0.297,0.357
				c0.105,0.117,0.217,0.221,0.342,0.307c0.123,0.086,0.273,0.148,0.447,0.189s0.375,0.063,0.602,0.063
				c0.463,0,0.822-0.063,1.078-0.193c0.256-0.127,0.434-0.307,0.537-0.537c0.102-0.234,0.158-0.48,0.178-0.742
				c0.016-0.264,0.031-0.688,0.041-1.273c-0.275,0.379-0.594,0.676-0.955,0.875c-0.359,0.201-0.785,0.303-1.283,0.303
				c-0.598,0-1.121-0.154-1.568-0.461c-0.447-0.303-0.791-0.73-1.029-1.283c-0.24-0.549-0.361-1.184-0.361-1.906
				c0-0.531,0.074-1.016,0.221-1.449c0.146-0.432,0.352-0.797,0.625-1.092c0.27-0.299,0.584-0.52,0.936-0.674
				c0.354-0.145,0.74-0.223,1.164-0.223c0.506,0,0.945,0.096,1.316,0.293c0.369,0.191,0.713,0.496,1.035,0.908v-0.24
				c0-0.309,0.074-0.549,0.227-0.719c0.154-0.17,0.348-0.254,0.588-0.254c0.346,0,0.574,0.113,0.689,0.336
				C341.842,776.549,341.898,776.871,341.898,777.297z M336.723,779.564c0,0.721,0.158,1.271,0.477,1.641
				c0.314,0.369,0.725,0.555,1.227,0.555c0.297,0,0.578-0.078,0.84-0.238c0.264-0.162,0.479-0.4,0.643-0.721
				c0.17-0.32,0.252-0.709,0.252-1.166c0-0.73-0.162-1.297-0.482-1.701c-0.32-0.41-0.744-0.609-1.266-0.609
				c-0.512,0-0.92,0.193-1.227,0.584C336.877,778.295,336.723,778.846,336.723,779.564z"/>
			<path fill="#3B8DEB" d="M345.328,776.975v0.219c0.314-0.416,0.658-0.723,1.033-0.912c0.371-0.195,0.799-0.291,1.283-0.291
				c0.471,0,0.895,0.102,1.264,0.305c0.369,0.207,0.646,0.496,0.832,0.871c0.115,0.219,0.193,0.455,0.227,0.705
				c0.035,0.256,0.053,0.576,0.053,0.969v3.328c0,0.355-0.082,0.625-0.244,0.811c-0.164,0.184-0.379,0.273-0.639,0.273
				c-0.268,0-0.482-0.092-0.648-0.281c-0.164-0.188-0.248-0.457-0.248-0.803v-2.979c0-0.588-0.08-1.041-0.246-1.352
				c-0.162-0.314-0.49-0.469-0.979-0.469c-0.318,0-0.609,0.096-0.869,0.285c-0.264,0.186-0.455,0.447-0.576,0.779
				c-0.086,0.271-0.131,0.768-0.131,1.492v2.242c0,0.359-0.084,0.633-0.252,0.813c-0.168,0.182-0.385,0.271-0.652,0.271
				c-0.256,0-0.467-0.092-0.633-0.281c-0.166-0.188-0.248-0.457-0.248-0.803v-5.166c0-0.342,0.072-0.594,0.223-0.762
				c0.148-0.166,0.35-0.25,0.607-0.25c0.156,0,0.299,0.035,0.424,0.107c0.125,0.078,0.23,0.189,0.305,0.336
				C345.291,776.582,345.328,776.764,345.328,776.975z"/>
			<path fill="#3B8DEB" d="M356.783,780.059h-3.492c0.006,0.406,0.086,0.764,0.244,1.072c0.16,0.313,0.371,0.545,0.635,0.699
				c0.266,0.162,0.557,0.236,0.875,0.236c0.215,0,0.41-0.023,0.586-0.072c0.178-0.047,0.344-0.131,0.516-0.236
				c0.164-0.105,0.318-0.223,0.455-0.346c0.141-0.121,0.32-0.287,0.543-0.494c0.092-0.08,0.225-0.121,0.395-0.121
				c0.182,0,0.33,0.051,0.441,0.15c0.115,0.1,0.174,0.244,0.174,0.424c0,0.164-0.064,0.352-0.191,0.57
				c-0.125,0.215-0.318,0.424-0.572,0.619c-0.254,0.199-0.574,0.363-0.963,0.498c-0.383,0.127-0.83,0.193-1.33,0.193
				c-1.148,0-2.039-0.328-2.678-0.982c-0.635-0.652-0.955-1.539-0.955-2.66c0-0.529,0.08-1.02,0.236-1.471
				c0.156-0.449,0.389-0.842,0.689-1.164c0.301-0.32,0.668-0.566,1.109-0.742c0.439-0.172,0.93-0.254,1.469-0.254
				c0.695,0,1.295,0.143,1.793,0.441c0.5,0.291,0.875,0.674,1.125,1.139c0.246,0.467,0.371,0.943,0.371,1.428
				c0,0.447-0.129,0.742-0.387,0.875C357.615,779.992,357.254,780.059,356.783,780.059z M353.291,779.045h3.238
				c-0.043-0.611-0.207-1.066-0.494-1.371c-0.283-0.303-0.662-0.453-1.129-0.453c-0.443,0-0.811,0.15-1.096,0.457
				C353.527,777.986,353.354,778.441,353.291,779.045z"/>
			<path fill="#3B8DEB" d="M364.656,782.23v-0.178c-0.24,0.277-0.475,0.498-0.711,0.672c-0.234,0.172-0.486,0.303-0.756,0.395
				c-0.273,0.088-0.57,0.133-0.893,0.133c-0.43,0-0.826-0.09-1.189-0.271c-0.365-0.18-0.68-0.438-0.945-0.775
				c-0.268-0.332-0.469-0.73-0.605-1.184c-0.139-0.453-0.207-0.945-0.207-1.473c0-1.115,0.273-1.988,0.818-2.611
				c0.547-0.623,1.266-0.936,2.154-0.936c0.516,0,0.949,0.09,1.299,0.266c0.357,0.176,0.701,0.449,1.035,0.813v-2.637
				c0-0.365,0.074-0.641,0.221-0.83c0.146-0.191,0.354-0.281,0.625-0.281s0.477,0.088,0.625,0.26
				c0.145,0.172,0.219,0.428,0.219,0.76v7.879c0,0.34-0.078,0.598-0.236,0.768c-0.156,0.168-0.361,0.254-0.607,0.254
				s-0.447-0.086-0.605-0.264C364.736,782.813,364.656,782.559,364.656,782.23z M361.145,779.609c0,0.482,0.076,0.895,0.227,1.234
				c0.15,0.342,0.357,0.596,0.617,0.77c0.262,0.172,0.549,0.26,0.855,0.26c0.316,0,0.602-0.084,0.863-0.246
				c0.254-0.166,0.465-0.414,0.619-0.752c0.156-0.342,0.234-0.762,0.234-1.266c0-0.479-0.078-0.887-0.234-1.227
				c-0.154-0.346-0.365-0.611-0.627-0.787c-0.264-0.186-0.555-0.271-0.869-0.271c-0.326,0-0.619,0.092-0.875,0.275
				c-0.258,0.188-0.457,0.457-0.598,0.803C361.215,778.748,361.145,779.15,361.145,779.609z"/>
			<path fill="#3B8DEB" d="M373.139,774.352v2.729c0.336-0.348,0.678-0.615,1.025-0.799c0.352-0.188,0.781-0.279,1.295-0.279
				c0.596,0,1.115,0.143,1.563,0.42c0.447,0.281,0.795,0.689,1.037,1.229c0.25,0.531,0.373,1.166,0.373,1.898
				c0,0.543-0.07,1.037-0.207,1.486c-0.137,0.451-0.336,0.848-0.6,1.174c-0.26,0.334-0.578,0.592-0.951,0.771
				c-0.373,0.182-0.783,0.271-1.232,0.271c-0.275,0-0.533-0.033-0.777-0.098c-0.238-0.064-0.447-0.152-0.617-0.262
				c-0.17-0.105-0.314-0.213-0.438-0.328c-0.117-0.111-0.275-0.283-0.471-0.512v0.178c0,0.336-0.08,0.592-0.244,0.768
				c-0.16,0.168-0.365,0.254-0.615,0.254s-0.455-0.086-0.605-0.254c-0.15-0.176-0.225-0.432-0.225-0.768v-7.803
				c0-0.357,0.072-0.631,0.219-0.818c0.148-0.188,0.35-0.277,0.611-0.277c0.275,0,0.488,0.088,0.637,0.268
				C373.063,773.775,373.139,774.027,373.139,774.352z M373.225,779.658c0,0.715,0.16,1.26,0.484,1.641
				c0.326,0.383,0.752,0.574,1.281,0.574c0.447,0,0.836-0.197,1.16-0.586c0.328-0.393,0.488-0.951,0.488-1.678
				c0-0.475-0.068-0.877-0.203-1.221c-0.135-0.338-0.328-0.602-0.576-0.789c-0.246-0.184-0.539-0.275-0.869-0.275
				c-0.34,0-0.645,0.092-0.908,0.275c-0.266,0.188-0.479,0.457-0.633,0.807C373.299,778.76,373.225,779.176,373.225,779.658z"/>
			<path fill="#3B8DEB" d="M381.336,783.475l0.164-0.398l-2.199-5.535c-0.135-0.32-0.201-0.551-0.201-0.693
				c0-0.15,0.039-0.299,0.117-0.428c0.078-0.133,0.184-0.234,0.322-0.313s0.279-0.117,0.43-0.117c0.258,0,0.451,0.082,0.582,0.242
				c0.131,0.166,0.248,0.4,0.348,0.705l1.512,4.398l1.432-4.092c0.115-0.332,0.219-0.59,0.307-0.777
				c0.092-0.188,0.191-0.314,0.293-0.379c0.102-0.066,0.246-0.098,0.436-0.098c0.135,0,0.266,0.035,0.389,0.107
				c0.125,0.072,0.221,0.17,0.285,0.293c0.072,0.121,0.105,0.25,0.105,0.383c-0.018,0.08-0.047,0.199-0.086,0.352
				c-0.039,0.156-0.09,0.313-0.146,0.469l-2.328,6.096c-0.201,0.539-0.396,0.957-0.59,1.262c-0.189,0.309-0.443,0.539-0.76,0.703
				c-0.318,0.164-0.744,0.246-1.279,0.246c-0.523,0-0.916-0.057-1.178-0.168c-0.262-0.113-0.393-0.318-0.393-0.621
				c0-0.205,0.061-0.363,0.186-0.475c0.125-0.113,0.309-0.168,0.555-0.168c0.094,0,0.189,0.014,0.281,0.039
				c0.111,0.027,0.209,0.037,0.293,0.037c0.205,0,0.365-0.029,0.482-0.09c0.119-0.059,0.225-0.168,0.318-0.318
				C381.105,783.988,381.217,783.766,381.336,783.475z"/>
		</g>
		<g display="inline">
			<path fill="#3B8DEB" d="M414.393,776.145h0.426v-0.535c0-0.559,0.07-1.004,0.217-1.33c0.137-0.33,0.379-0.57,0.717-0.721
				c0.338-0.152,0.801-0.227,1.395-0.227c1.037,0,1.561,0.256,1.561,0.766c0,0.164-0.057,0.307-0.166,0.426
				c-0.107,0.119-0.234,0.178-0.385,0.178c-0.072,0-0.191-0.012-0.361-0.041c-0.168-0.025-0.313-0.037-0.43-0.037
				c-0.326,0-0.531,0.092-0.623,0.281c-0.092,0.193-0.137,0.465-0.137,0.814v0.426h0.438c0.684,0,1.023,0.207,1.023,0.619
				c0,0.289-0.09,0.475-0.271,0.553s-0.43,0.121-0.752,0.121h-0.438v4.73c0,0.35-0.086,0.619-0.25,0.807
				c-0.17,0.188-0.385,0.277-0.654,0.277c-0.252,0-0.463-0.09-0.633-0.277c-0.166-0.188-0.25-0.457-0.25-0.807v-4.73h-0.492
				c-0.266,0-0.467-0.061-0.613-0.186c-0.143-0.117-0.217-0.273-0.217-0.465C413.496,776.359,413.797,776.145,414.393,776.145z"/>
			<path fill="#3B8DEB" d="M420.773,780.672v1.496c0,0.359-0.084,0.633-0.254,0.813c-0.172,0.182-0.387,0.271-0.648,0.271
				c-0.256,0-0.469-0.09-0.633-0.273c-0.17-0.186-0.25-0.455-0.25-0.811v-4.975c0-0.803,0.287-1.203,0.869-1.203
				c0.295,0,0.51,0.094,0.641,0.279c0.133,0.186,0.203,0.467,0.217,0.83c0.215-0.363,0.434-0.645,0.656-0.83
				c0.225-0.186,0.525-0.279,0.9-0.279s0.74,0.094,1.094,0.279s0.529,0.436,0.529,0.744c0,0.223-0.074,0.396-0.227,0.543
				c-0.148,0.141-0.309,0.209-0.488,0.209c-0.064,0-0.221-0.037-0.473-0.115c-0.25-0.086-0.469-0.127-0.666-0.127
				c-0.26,0-0.475,0.072-0.639,0.213c-0.168,0.135-0.295,0.338-0.389,0.609c-0.09,0.27-0.154,0.592-0.189,0.967
				C420.789,779.682,420.773,780.139,420.773,780.672z"/>
			<path fill="#3B8DEB" d="M429.521,780.059h-3.494c0.008,0.406,0.086,0.764,0.246,1.072c0.158,0.313,0.369,0.545,0.637,0.699
				c0.262,0.162,0.553,0.236,0.871,0.236c0.215,0,0.41-0.023,0.586-0.072c0.178-0.047,0.348-0.131,0.512-0.236
				c0.17-0.105,0.32-0.223,0.461-0.346c0.139-0.121,0.322-0.287,0.543-0.494c0.092-0.08,0.225-0.121,0.393-0.121
				c0.184,0,0.332,0.051,0.441,0.15c0.113,0.1,0.172,0.244,0.172,0.424c0,0.164-0.061,0.352-0.189,0.57
				c-0.131,0.215-0.318,0.424-0.568,0.619c-0.256,0.199-0.58,0.363-0.965,0.498c-0.387,0.127-0.832,0.193-1.33,0.193
				c-1.152,0-2.043-0.328-2.676-0.982c-0.639-0.652-0.957-1.539-0.957-2.66c0-0.529,0.076-1.02,0.236-1.471
				c0.154-0.449,0.383-0.842,0.686-1.164c0.299-0.32,0.672-0.566,1.115-0.742c0.436-0.172,0.926-0.254,1.467-0.254
				c0.695,0,1.291,0.143,1.789,0.441c0.502,0.291,0.877,0.674,1.127,1.139c0.246,0.467,0.373,0.943,0.373,1.428
				c0,0.447-0.127,0.742-0.389,0.875C430.35,779.992,429.99,780.059,429.521,780.059z M426.027,779.045h3.24
				c-0.047-0.611-0.207-1.066-0.492-1.371c-0.287-0.303-0.664-0.453-1.131-0.453c-0.445,0-0.811,0.15-1.1,0.457
				C426.262,777.986,426.088,778.441,426.027,779.045z"/>
			<path fill="#3B8DEB" d="M437.484,780.059h-3.494c0.008,0.406,0.088,0.764,0.246,1.072c0.16,0.313,0.371,0.545,0.633,0.699
				c0.268,0.162,0.557,0.236,0.877,0.236c0.213,0,0.404-0.023,0.582-0.072c0.178-0.047,0.352-0.131,0.514-0.236
				c0.166-0.105,0.318-0.223,0.461-0.346c0.139-0.121,0.322-0.287,0.545-0.494c0.092-0.08,0.217-0.121,0.391-0.121
				c0.184,0,0.332,0.051,0.443,0.15s0.17,0.244,0.17,0.424c0,0.164-0.063,0.352-0.186,0.57c-0.129,0.215-0.322,0.424-0.578,0.619
				c-0.252,0.199-0.572,0.363-0.957,0.498c-0.389,0.127-0.834,0.193-1.334,0.193c-1.145,0-2.039-0.328-2.676-0.982
				c-0.637-0.652-0.953-1.539-0.953-2.66c0-0.529,0.078-1.02,0.23-1.471c0.16-0.449,0.387-0.842,0.689-1.164
				c0.299-0.32,0.67-0.566,1.113-0.742c0.441-0.172,0.93-0.254,1.463-0.254c0.699,0,1.299,0.143,1.801,0.441
				c0.496,0.291,0.871,0.674,1.121,1.139c0.248,0.467,0.371,0.943,0.371,1.428c0,0.447-0.129,0.742-0.387,0.875
				C438.314,779.992,437.953,780.059,437.484,780.059z M433.99,779.045h3.236c-0.043-0.611-0.207-1.066-0.49-1.371
				c-0.285-0.303-0.66-0.453-1.129-0.453c-0.447,0-0.809,0.15-1.096,0.457C434.229,777.986,434.049,778.441,433.99,779.045z"/>
			<path fill="#3B8DEB" d="M441.934,776.99v0.213c0.342-0.412,0.688-0.717,1.049-0.908c0.361-0.197,0.771-0.293,1.23-0.293
				c0.549,0,1.055,0.143,1.516,0.424c0.463,0.285,0.828,0.699,1.098,1.244c0.266,0.543,0.402,1.189,0.402,1.939
				c0,0.547-0.08,1.051-0.232,1.512c-0.154,0.459-0.367,0.848-0.639,1.158c-0.27,0.313-0.588,0.553-0.955,0.723
				c-0.369,0.166-0.768,0.25-1.189,0.25c-0.512,0-0.941-0.104-1.285-0.309c-0.35-0.203-0.68-0.504-0.994-0.9v2.682
				c0,0.785-0.289,1.176-0.854,1.176c-0.338,0-0.559-0.102-0.672-0.303c-0.107-0.203-0.16-0.5-0.16-0.887v-7.709
				c0-0.342,0.074-0.594,0.221-0.762c0.148-0.166,0.352-0.25,0.611-0.25c0.25,0,0.457,0.084,0.615,0.258
				C441.857,776.42,441.934,776.668,441.934,776.99z M445.434,779.59c0-0.473-0.068-0.877-0.217-1.215
				c-0.143-0.34-0.34-0.604-0.594-0.779c-0.256-0.186-0.539-0.271-0.85-0.271c-0.492,0-0.906,0.193-1.248,0.584
				c-0.334,0.387-0.508,0.959-0.508,1.715c0,0.707,0.17,1.26,0.508,1.654c0.332,0.398,0.75,0.596,1.248,0.596
				c0.299,0,0.572-0.088,0.824-0.26c0.252-0.174,0.457-0.428,0.607-0.775C445.355,780.492,445.434,780.076,445.434,779.59z"/>
			<path fill="#3B8DEB" d="M449.568,775.16c-0.252,0-0.469-0.082-0.643-0.229c-0.174-0.154-0.264-0.371-0.264-0.648
				c0-0.256,0.092-0.465,0.271-0.625c0.178-0.166,0.391-0.248,0.635-0.248c0.227,0,0.434,0.074,0.611,0.221
				c0.178,0.152,0.268,0.367,0.268,0.652c0,0.273-0.086,0.486-0.262,0.645C450.012,775.078,449.803,775.16,449.568,775.16z
				 M450.447,777.002v5.166c0,0.355-0.086,0.625-0.256,0.811c-0.17,0.184-0.383,0.273-0.648,0.273c-0.262,0-0.471-0.092-0.637-0.281
				c-0.162-0.188-0.244-0.457-0.244-0.803v-5.113c0-0.352,0.082-0.621,0.244-0.795c0.166-0.18,0.375-0.27,0.637-0.27
				c0.266,0,0.479,0.09,0.648,0.27C450.361,776.434,450.447,776.684,450.447,777.002z"/>
			<path fill="#3B8DEB" d="M456.744,782.436l-1.58-2.594l-0.969,0.918v1.42c0,0.344-0.086,0.607-0.268,0.795
				c-0.186,0.188-0.395,0.277-0.625,0.277c-0.277,0-0.49-0.09-0.648-0.273c-0.16-0.186-0.236-0.455-0.236-0.811v-7.617
				c0-0.398,0.072-0.701,0.225-0.906c0.158-0.209,0.375-0.313,0.66-0.313c0.273,0,0.492,0.09,0.654,0.281
				c0.16,0.189,0.238,0.465,0.238,0.83v4.334l2.01-2.109c0.25-0.26,0.439-0.439,0.564-0.535c0.135-0.096,0.293-0.143,0.48-0.143
				c0.225,0,0.408,0.066,0.561,0.213c0.145,0.143,0.221,0.318,0.221,0.533c0,0.262-0.242,0.609-0.729,1.047l-0.947,0.867l1.83,2.883
				c0.141,0.215,0.236,0.375,0.293,0.484c0.059,0.111,0.088,0.219,0.088,0.316c0,0.285-0.074,0.508-0.23,0.674
				c-0.156,0.16-0.363,0.244-0.613,0.244c-0.219,0-0.385-0.059-0.504-0.176C457.102,782.959,456.943,782.742,456.744,782.436z"/>
			<path fill="#3B8DEB" d="M461.158,783.252c-0.271,0-0.502-0.086-0.699-0.264c-0.195-0.172-0.299-0.418-0.299-0.732
				c0-0.264,0.098-0.494,0.285-0.686s0.422-0.287,0.693-0.287c0.275,0,0.51,0.096,0.705,0.283c0.193,0.191,0.291,0.42,0.291,0.689
				c0,0.311-0.098,0.557-0.291,0.732C461.648,783.166,461.42,783.252,461.158,783.252z"/>
			<path fill="#3B8DEB" d="M470.576,781.039c0,0.223-0.068,0.461-0.201,0.713c-0.133,0.256-0.336,0.494-0.607,0.727
				c-0.273,0.227-0.619,0.412-1.029,0.549c-0.416,0.141-0.885,0.213-1.402,0.213c-1.104,0-1.965-0.324-2.586-0.967
				c-0.617-0.643-0.93-1.506-0.93-2.586c0-0.736,0.145-1.385,0.428-1.945c0.281-0.563,0.695-1,1.232-1.305
				c0.535-0.309,1.176-0.459,1.922-0.459c0.461,0,0.885,0.064,1.273,0.201c0.385,0.135,0.711,0.307,0.98,0.523
				c0.268,0.213,0.473,0.439,0.615,0.682c0.141,0.244,0.211,0.469,0.211,0.68c0,0.217-0.078,0.395-0.24,0.543
				c-0.156,0.148-0.35,0.221-0.578,0.221c-0.146,0-0.273-0.039-0.369-0.113c-0.1-0.076-0.207-0.197-0.33-0.369
				c-0.217-0.33-0.445-0.582-0.684-0.746c-0.238-0.166-0.541-0.248-0.906-0.248c-0.525,0-0.951,0.205-1.275,0.619
				c-0.32,0.412-0.486,0.973-0.486,1.688c0,0.338,0.041,0.648,0.127,0.928c0.082,0.281,0.203,0.52,0.359,0.721
				c0.154,0.195,0.348,0.35,0.568,0.451c0.225,0.104,0.471,0.154,0.734,0.154c0.354,0,0.662-0.086,0.918-0.248
				c0.256-0.17,0.482-0.418,0.678-0.762c0.109-0.201,0.229-0.357,0.354-0.469c0.127-0.115,0.281-0.172,0.461-0.172
				c0.225,0,0.402,0.082,0.547,0.25C470.5,780.68,470.576,780.854,470.576,781.039z"/>
			<path fill="#3B8DEB" d="M478.818,779.623c0,0.527-0.078,1.02-0.246,1.467c-0.168,0.453-0.408,0.838-0.723,1.158
				c-0.313,0.322-0.686,0.574-1.123,0.75c-0.438,0.168-0.93,0.254-1.475,0.254c-0.535,0-1.025-0.086-1.457-0.264
				c-0.43-0.172-0.807-0.422-1.125-0.746c-0.313-0.326-0.557-0.709-0.715-1.152c-0.164-0.441-0.248-0.934-0.248-1.467
				c0-0.543,0.084-1.037,0.254-1.49c0.16-0.445,0.4-0.834,0.705-1.15c0.313-0.318,0.688-0.563,1.129-0.734
				c0.441-0.174,0.926-0.258,1.457-0.258c0.545,0,1.033,0.09,1.475,0.26c0.439,0.172,0.816,0.422,1.131,0.748
				c0.316,0.322,0.553,0.705,0.715,1.15C478.74,778.594,478.818,779.086,478.818,779.623z M477.027,779.623
				c0-0.73-0.164-1.299-0.482-1.703s-0.748-0.609-1.293-0.609c-0.346,0-0.654,0.088-0.922,0.271
				c-0.264,0.182-0.471,0.447-0.617,0.801c-0.141,0.355-0.213,0.768-0.213,1.24c0,0.467,0.07,0.871,0.213,1.221
				c0.143,0.352,0.344,0.613,0.607,0.801c0.266,0.186,0.576,0.275,0.932,0.275c0.545,0,0.975-0.201,1.293-0.609
				S477.027,780.338,477.027,779.623z"/>
			<path fill="#3B8DEB" d="M486.168,779.75v2.375c0,0.375-0.084,0.658-0.254,0.846c-0.172,0.189-0.396,0.281-0.676,0.281
				c-0.27,0-0.488-0.092-0.658-0.281c-0.168-0.188-0.254-0.471-0.254-0.846v-2.846c0-0.451-0.014-0.793-0.041-1.047
				c-0.033-0.248-0.115-0.451-0.252-0.611c-0.135-0.16-0.348-0.236-0.641-0.236c-0.582,0-0.969,0.201-1.15,0.6
				c-0.188,0.402-0.281,0.977-0.281,1.727v2.414c0,0.373-0.084,0.65-0.254,0.842c-0.166,0.189-0.389,0.285-0.662,0.285
				c-0.27,0-0.49-0.096-0.666-0.285c-0.172-0.191-0.256-0.469-0.256-0.842v-5.111c0-0.332,0.074-0.592,0.23-0.764
				c0.156-0.17,0.361-0.26,0.611-0.26c0.246,0,0.449,0.082,0.611,0.242c0.168,0.166,0.246,0.395,0.246,0.68v0.168
				c0.311-0.369,0.643-0.643,0.996-0.816c0.354-0.172,0.746-0.262,1.176-0.262c0.451,0,0.836,0.09,1.156,0.268
				c0.326,0.18,0.592,0.451,0.801,0.811c0.301-0.363,0.625-0.637,0.971-0.813c0.344-0.176,0.725-0.266,1.145-0.266
				c0.486,0,0.91,0.096,1.262,0.285c0.355,0.199,0.615,0.469,0.789,0.824c0.158,0.326,0.232,0.834,0.232,1.527v3.486
				c0,0.375-0.088,0.658-0.258,0.846c-0.168,0.189-0.391,0.281-0.672,0.281c-0.268,0-0.492-0.096-0.662-0.285
				c-0.176-0.191-0.26-0.469-0.26-0.842v-3.004c0-0.381-0.016-0.688-0.049-0.922c-0.035-0.229-0.121-0.428-0.264-0.58
				c-0.146-0.158-0.365-0.234-0.656-0.234c-0.236,0-0.457,0.07-0.67,0.209c-0.209,0.135-0.379,0.326-0.496,0.563
				C486.234,778.455,486.168,778.986,486.168,779.75z"/>
		</g>
		<g display="inline">
			<path fill="#3B8DEB" d="M400.316,771.383c-0.035-0.113-0.072-0.229-0.109-0.342c0.596-0.055,1.002-0.775,0.709-1.309
				c-0.27-0.6-1.193-0.674-1.551-0.123c-0.383,0.486-0.084,1.256,0.5,1.414c0.039,0.121,0.07,0.246,0.107,0.369
				c-0.898,0.061-1.816,0.262-2.572,0.773c0.078,0.215,0.156,0.438,0.232,0.656c1.525-0.668,3.23-0.523,4.838-0.363
				c0.055-0.211,0.107-0.426,0.162-0.635C401.904,771.498,401.107,771.377,400.316,771.383z"/>
			<path fill="#3B8DEB" d="M409.371,773.84c-0.24,0.123-0.285,0.412-0.271,0.656c-0.27,0.26-0.143,0.654-0.17,0.98
				c-0.061,0.182-0.279,0.203-0.432,0.273c-0.211-0.32-0.436-0.629-0.719-0.893l0.006-0.014c-0.309-0.287-0.641-0.551-0.992-0.777
				c-0.279,0.301-0.574,0.598-0.844,0.91c0.533,0.592,1.029,1.227,1.467,1.891c0.303,0.508,0.543,1.049,0.756,1.6
				c0.451-0.234,0.898-0.477,1.352-0.715c-0.238-0.551-0.51-1.092-0.801-1.619c0.197-0.107,0.469-0.211,0.498-0.475
				c0.023-0.289-0.039-0.602,0.131-0.855c0.352,0.229,0.883-0.027,0.887-0.453C410.287,773.908,409.732,773.592,409.371,773.84z"/>
			<path fill="#3B8DEB" d="M406.924,777.125c-0.59-0.977-1.227-1.953-2.098-2.705c-0.998-0.883-2.301-1.477-3.652-1.471
				c-1.707-0.018-3.436,0.256-5.006,0.939c-1.482,0.65-2.771,1.814-3.422,3.313c-0.631,1.346-0.621,2.9-0.338,4.334
				c1.57,0.393,3.168,0.742,4.785,0.816c1.6,0.051,3.207,0.088,4.795-0.133c2.18-0.289,4.318-0.977,6.221-2.094
				C408.209,780.125,407.947,778.689,406.924,777.125z M399.207,779.059c-0.297,0.43-0.723,0.762-1.209,0.949
				c-0.92,0.342-2.035,0.107-2.697-0.623c-0.461-0.508-0.734-1.191-0.684-1.881c0.037-0.861,0.566-1.664,1.324-2.066
				c0.574-0.311,1.268-0.367,1.898-0.189c0.262,0.064,0.504,0.188,0.73,0.34c0.465,0.326,0.813,0.814,0.969,1.363
				C399.754,777.656,399.615,778.447,399.207,779.059z M405.822,777.504c-0.107,0.736-0.813,1.359-1.564,1.313
				c-0.436,0.035-0.854-0.17-1.15-0.479c-0.213-0.264-0.387-0.566-0.416-0.912c-0.102-0.748,0.422-1.52,1.156-1.697
				c0.32-0.092,0.66-0.041,0.979,0.035C405.512,776.006,405.963,776.785,405.822,777.504z"/>
			<path fill="#3B8DEB" d="M392.764,774.941c-0.637,0.385-1.162,0.926-1.6,1.525c-0.127-0.238-0.166-0.52-0.332-0.734
				c-0.096-0.125-0.266-0.074-0.398-0.074c-0.17,0.016-0.334-0.029-0.494-0.078c0.188-0.262,0.139-0.664-0.146-0.838
				c-0.307-0.219-0.779-0.029-0.861,0.336c-0.127,0.398,0.295,0.799,0.686,0.693c0.209,0.309,0.584,0.258,0.902,0.27
				c0.143,0.246,0.254,0.52,0.438,0.746c-0.344,0.674-0.537,1.428-0.553,2.186c0.441,0.186,0.881,0.373,1.32,0.555
				c0.021-0.48,0.078-0.953,0.15-1.42c0.146-1.027,0.74-1.918,1.441-2.65C393.143,775.271,392.947,775.113,392.764,774.941z"/>
			<path fill="#3B8DEB" d="M403.029,782.666c-1.617,0.354-3.287,0.461-4.941,0.387c-1.117-0.057-2.238-0.162-3.33-0.404
				c-0.773-0.158-1.533-0.381-2.297-0.6c0.123,0.973,0.516,1.904,1.078,2.709c0.664,0.932,1.551,1.787,2.654,2.133
				c0.861,0.232,1.889,0.527,3.658,0.494c1.463-0.023,2.9-0.209,4.184-0.758c0.828-0.355,1.604-0.84,2.271-1.447
				c0.576-0.543,1.027-1.221,1.338-1.945c0.303-0.689,0.574-1.924,0.545-2.555C406.605,781.58,404.836,782.365,403.029,782.666z"/>
		</g>
	</g>
</g>
</svg>
